<svg width="18" height="26" viewBox="0 0 18 26" fill="none" xmlns="http://www.w3.org/2000/svg">
<path d="M16.5433 18.0964C16.5433 22.064 11.8529 24.2252 8.52521 24.4833L8.23998 25.9994H7.28921L7.57444 24.5156C5.54614 24.4833 3.92984 23.9349 2.69384 23.4833L2.53538 23.4511C1.86984 23.193 1.29938 22.9995 0.85569 22.9995C0.475383 22.9995 0.28523 23.1607 0.158461 23.4511H0L1.04584 17.7093H1.29938V17.7738C1.29938 20.6447 3.61291 23.9349 7.54275 24.193H7.60613L9.7929 12.9352C9.53936 12.8062 9.3492 12.6771 7.63782 11.7417C6.24337 10.9675 3.51784 9.48365 3.51784 6.67726C3.51784 3.12896 7.95475 1.61287 10.7754 1.61287C11.1874 1.61287 11.536 1.64512 11.8529 1.67738H11.948L12.2649 0H13.2157L12.8987 1.83867C13.596 1.99995 14.2298 2.22575 15.3073 2.58059C15.5292 2.6451 16.1313 2.83864 16.575 2.83864C17.1138 2.83864 17.5258 2.51607 17.7476 2.22575H17.8427L16.7969 7.77401H16.5433V7.7095C16.5433 5.61277 15.1806 3.25799 12.8987 2.32253H12.772L10.9338 11.7417C13.7861 13.3223 16.5433 15.0642 16.5433 18.0964ZM5.10245 6.16115C5.10245 8.29013 7.47936 9.74171 9.95136 11.1933H10.0781L11.8529 2.03221C11.4726 1.9677 11.124 1.93544 10.6803 1.93544C8.01813 1.93544 5.57783 3.19347 5.16583 5.45149V5.516C5.13414 5.70954 5.10245 5.90309 5.10245 6.16115ZM10.6169 13.4836L8.5569 24.1607H8.65198C11.536 23.9349 14.8953 21.8059 14.8953 18.6447C14.8953 16.2577 12.9621 14.8384 10.7437 13.4836H10.6169Z" fill="#FEDBA3"/>
<path d="M16.5433 18.0964C16.5433 22.064 11.8529 24.2252 8.52521 24.4833L8.23998 25.9994H7.28921L7.57444 24.5156C5.54614 24.4833 3.92984 23.9349 2.69384 23.4833L2.53538 23.4511C1.86984 23.193 1.29938 22.9995 0.85569 22.9995C0.475383 22.9995 0.28523 23.1607 0.158461 23.4511H0L1.04584 17.7093H1.29938V17.7738C1.29938 20.6447 3.61291 23.9349 7.54275 24.193H7.60613L9.7929 12.9352C9.53936 12.8062 9.3492 12.6771 7.63782 11.7417C6.24337 10.9675 3.51784 9.48365 3.51784 6.67726C3.51784 3.12896 7.95475 1.61287 10.7754 1.61287C11.1874 1.61287 11.536 1.64512 11.8529 1.67738H11.948L12.2649 0H13.2157L12.8987 1.83867C13.596 1.99995 14.2298 2.22575 15.3073 2.58059C15.5292 2.6451 16.1313 2.83864 16.575 2.83864C17.1138 2.83864 17.5258 2.51607 17.7476 2.22575H17.8427L16.7969 7.77401H16.5433V7.7095C16.5433 5.61277 15.1806 3.25799 12.8987 2.32253H12.772L10.9338 11.7417C13.7861 13.3223 16.5433 15.0642 16.5433 18.0964ZM5.10245 6.16115C5.10245 8.29013 7.47936 9.74171 9.95136 11.1933H10.0781L11.8529 2.03221C11.4726 1.9677 11.124 1.93544 10.6803 1.93544C8.01813 1.93544 5.57783 3.19347 5.16583 5.45149V5.516C5.13414 5.70954 5.10245 5.90309 5.10245 6.16115ZM10.6169 13.4836L8.5569 24.1607H8.65198C11.536 23.9349 14.8953 21.8059 14.8953 18.6447C14.8953 16.2577 12.9621 14.8384 10.7437 13.4836H10.6169Z" fill="url(#paint0_linear_1930_26576)"/>
<defs>
<linearGradient id="paint0_linear_1930_26576" x1="8.92136" y1="0" x2="8.92136" y2="25.9994" gradientUnits="userSpaceOnUse">
<stop stop-color="white"/>
<stop offset="1" stop-color="#999999"/>
</linearGradient>
</defs>
</svg>
