<svg width="1084" height="164" viewBox="0 0 1084 164" fill="none" xmlns="http://www.w3.org/2000/svg">
<path d="M26.1562 98.8824C23.575 103.017 13.7664 117.66 30.9745 119.727L30.8024 120.588H0L0.344161 119.727C8.43194 117.832 15.1431 113.181 24.0913 98.7101L85.0077 0H87.2448L109.271 98.7101C112.541 113.353 118.219 118.176 125.275 119.899L125.102 120.588H82.7707L83.1148 119.727C98.0858 118.004 100.151 111.113 97.5696 99.5714L89.1376 61.1555H49.3871L26.1562 98.8824ZM78.6407 13.7815L50.5916 59.4328H88.7935L78.6407 13.7815Z" fill="url(#paint0_linear_1930_26680)"/>
<path d="M231.925 90.6134C228.14 100.95 221.256 121.105 208.35 121.105C199.746 121.105 196.305 112.319 199.574 96.6429L206.285 64.9454C210.243 46.5126 206.285 35.3151 196.477 35.3151C178.925 35.3151 159.996 71.3193 155.005 96.8151L150.359 120.588C148.294 119.727 146.573 119.21 144.853 119.21C143.132 119.21 141.411 119.727 139.174 120.588L150.359 63.395C152.424 53.0588 155.866 36.0042 148.466 36.0042C143.648 36.0042 139.002 42.895 132.807 59.0882L131.258 58.7437C135.044 48.4076 141.927 28.2521 154.833 28.2521C163.437 28.2521 166.535 37.3824 163.437 52.7143L158.447 78.2101C168.084 52.1975 186.324 28.5966 203.532 28.5966C216.094 28.5966 222.289 41.1723 218.675 58.3992L212.824 85.9622C210.587 96.2983 207.318 113.353 214.717 113.353C219.536 113.353 224.182 106.462 230.377 90.2689L231.925 90.6134Z" fill="url(#paint1_linear_1930_26680)"/>
<path d="M304.424 59.9496C297.368 87.5126 274.654 122.311 252.111 122.311C215.114 122.311 239.205 28.2521 320.943 28.2521L310.446 85.9622C308.554 96.2983 305.112 113.353 312.511 113.353C317.33 113.353 321.976 106.462 328.171 90.2689L329.719 90.6134C325.934 100.95 319.05 121.105 306.144 121.105C297.54 121.105 294.443 112.319 297.368 96.6429L304.424 59.9496ZM308.554 36.8655C231.806 42.3782 229.741 114.042 258.306 114.042C280.332 114.042 303.907 72.0084 307.865 42.0336L308.554 36.8655Z" fill="url(#paint2_linear_1930_26680)"/>
<path d="M474.485 92.1639C463.472 109.563 444.199 121.277 422.861 121.277C397.393 121.277 381.905 104.395 381.905 77.521C381.905 39.4496 413.224 0 450.566 0C467.601 0 479.647 8.09664 479.819 19.6387C479.819 24.979 477.238 28.2521 473.796 28.2521C469.666 28.2521 469.15 23.9454 468.118 18.9496C466.569 11.1975 464.332 1.72269 449.877 1.72269C418.559 1.72269 393.435 46.5126 393.435 76.6597C393.435 99.2269 407.373 114.559 430.088 114.559C447.296 114.559 462.955 105.773 473.796 91.6471L474.485 92.1639Z" fill="url(#paint3_linear_1930_26680)"/>
<path d="M474.485 92.1639C463.472 109.563 444.199 121.277 422.861 121.277C397.393 121.277 381.905 104.395 381.905 77.521C381.905 39.4496 413.224 0 450.566 0C467.601 0 479.647 8.09664 479.819 19.6387C479.819 24.979 477.238 28.2521 473.796 28.2521C469.666 28.2521 469.15 23.9454 468.118 18.9496C466.569 11.1975 464.332 1.72269 449.877 1.72269C418.559 1.72269 393.435 46.5126 393.435 76.6597C393.435 99.2269 407.373 114.559 430.088 114.559C447.296 114.559 462.955 105.773 473.796 91.6471L474.485 92.1639Z" fill="url(#paint4_linear_1930_26680)"/>
<path d="M550.613 59.9496C543.557 87.5126 520.843 122.311 498.3 122.311C461.303 122.311 485.394 28.2521 567.133 28.2521L556.636 85.9622C554.743 96.2983 551.301 113.353 558.701 113.353C563.519 113.353 568.165 106.462 574.36 90.2689L575.909 90.6134C572.123 100.95 565.24 121.105 552.334 121.105C543.73 121.105 540.632 112.319 543.557 96.6429L550.613 59.9496ZM554.743 36.8655C477.995 42.3782 475.93 114.042 504.495 114.042C526.522 114.042 550.097 72.0084 554.054 42.0336L554.743 36.8655Z" fill="url(#paint5_linear_1930_26680)"/>
<path d="M550.613 59.9496C543.557 87.5126 520.843 122.311 498.3 122.311C461.303 122.311 485.394 28.2521 567.133 28.2521L556.636 85.9622C554.743 96.2983 551.301 113.353 558.701 113.353C563.519 113.353 568.165 106.462 574.36 90.2689L575.909 90.6134C572.123 100.95 565.24 121.105 552.334 121.105C543.73 121.105 540.632 112.319 543.557 96.6429L550.613 59.9496ZM554.743 36.8655C477.995 42.3782 475.93 114.042 504.495 114.042C526.522 114.042 550.097 72.0084 554.054 42.0336L554.743 36.8655Z" fill="url(#paint6_linear_1930_26680)"/>
<path d="M733.677 90.6134C729.891 100.95 723.008 121.105 710.102 121.105C701.498 121.105 698.056 112.319 701.326 96.6429L708.037 64.9454C711.995 46.5126 708.037 35.3151 698.228 35.3151C680.676 35.3151 661.747 71.3193 656.757 96.8151H656.585L651.594 120.588C649.529 119.555 647.809 119.21 646.088 119.21C644.367 119.21 642.646 119.555 640.581 120.416L652.283 64.9454C656.24 46.5126 652.283 35.3151 642.474 35.3151C624.922 35.3151 605.993 71.3193 601.003 96.8151L596.357 120.588C594.292 119.727 592.571 119.21 590.85 119.21C589.129 119.21 587.408 119.727 585.171 120.588L596.357 63.395C598.422 53.0588 601.863 36.0042 594.464 36.0042C589.645 36.0042 584.999 42.895 578.804 59.0882L577.256 58.7437C581.041 48.4076 587.925 28.2521 600.831 28.2521C609.435 28.2521 612.532 37.3824 609.435 52.7143L604.444 78.2101C614.081 52.1975 632.321 28.5966 649.529 28.5966C662.091 28.5966 668.286 41.1723 664.672 58.3992L660.715 76.8319C670.523 51.3361 688.419 28.5966 705.283 28.5966C717.845 28.5966 724.04 41.1723 720.427 58.3992L714.576 85.9622C712.339 96.2983 709.069 113.353 716.469 113.353C721.287 113.353 725.933 106.462 732.128 90.2689L733.677 90.6134Z" fill="url(#paint7_linear_1930_26680)"/>
<path d="M733.677 90.6134C729.891 100.95 723.008 121.105 710.102 121.105C701.498 121.105 698.056 112.319 701.326 96.6429L708.037 64.9454C711.995 46.5126 708.037 35.3151 698.228 35.3151C680.676 35.3151 661.747 71.3193 656.757 96.8151H656.585L651.594 120.588C649.529 119.555 647.809 119.21 646.088 119.21C644.367 119.21 642.646 119.555 640.581 120.416L652.283 64.9454C656.24 46.5126 652.283 35.3151 642.474 35.3151C624.922 35.3151 605.993 71.3193 601.003 96.8151L596.357 120.588C594.292 119.727 592.571 119.21 590.85 119.21C589.129 119.21 587.408 119.727 585.171 120.588L596.357 63.395C598.422 53.0588 601.863 36.0042 594.464 36.0042C589.645 36.0042 584.999 42.895 578.804 59.0882L577.256 58.7437C581.041 48.4076 587.925 28.2521 600.831 28.2521C609.435 28.2521 612.532 37.3824 609.435 52.7143L604.444 78.2101C614.081 52.1975 632.321 28.5966 649.529 28.5966C662.091 28.5966 668.286 41.1723 664.672 58.3992L660.715 76.8319C670.523 51.3361 688.419 28.5966 705.283 28.5966C717.845 28.5966 724.04 41.1723 720.427 58.3992L714.576 85.9622C712.339 96.2983 709.069 113.353 716.469 113.353C721.287 113.353 725.933 106.462 732.128 90.2689L733.677 90.6134Z" fill="url(#paint8_linear_1930_26680)"/>
<path d="M806.045 59.9496C798.989 87.5126 776.275 122.311 753.732 122.311C716.735 122.311 740.826 28.2521 822.564 28.2521L812.067 85.9622C810.174 96.2983 806.733 113.353 814.132 113.353C818.951 113.353 823.597 106.462 829.792 90.2689L831.34 90.6134C827.555 100.95 820.671 121.105 807.765 121.105C799.161 121.105 796.064 112.319 798.989 96.6429L806.045 59.9496ZM810.174 36.8655C733.427 42.3782 731.362 114.042 759.927 114.042C781.953 114.042 805.528 72.0084 809.486 42.0336L810.174 36.8655Z" fill="url(#paint9_linear_1930_26680)"/>
<path d="M806.045 59.9496C798.989 87.5126 776.275 122.311 753.732 122.311C716.735 122.311 740.826 28.2521 822.564 28.2521L812.067 85.9622C810.174 96.2983 806.733 113.353 814.132 113.353C818.951 113.353 823.597 106.462 829.792 90.2689L831.34 90.6134C827.555 100.95 820.671 121.105 807.765 121.105C799.161 121.105 796.064 112.319 798.989 96.6429L806.045 59.9496ZM810.174 36.8655C733.427 42.3782 731.362 114.042 759.927 114.042C781.953 114.042 805.528 72.0084 809.486 42.0336L810.174 36.8655Z" fill="url(#paint10_linear_1930_26680)"/>
<path d="M892.227 34.1092C877.773 34.1092 861.425 69.4244 857.811 86.8235L850.928 120.588C848.863 119.727 847.142 119.21 845.421 119.21C843.701 119.21 842.152 119.727 840.259 120.588L851.616 63.395C853.509 54.9538 854.37 48.9244 854.37 44.6177C854.37 38.2437 852.477 36.0042 849.551 36.0042C842.668 36.0042 835.613 48.9244 834.58 59.2605L832.859 58.7437C834.236 48.7521 843.012 28.2521 855.402 28.2521C861.425 28.2521 865.555 32.9034 865.555 42.7227C865.555 46.1681 865.039 49.2689 864.694 53.0588L860.909 70.8025H861.081C868.652 52.0252 881.214 28.2521 896.529 28.2521C906.682 28.2521 912.705 38.5882 908.059 46.6849C906.51 49.4412 904.445 50.9916 902.208 50.9916C901.52 50.9916 900.659 50.6471 899.971 50.3025C897.046 48.5798 897.218 45.1345 897.906 42.5504C899.455 36.3487 895.841 34.1092 892.227 34.1092Z" fill="url(#paint11_linear_1930_26680)"/>
<path d="M892.227 34.1092C877.773 34.1092 861.425 69.4244 857.811 86.8235L850.928 120.588C848.863 119.727 847.142 119.21 845.421 119.21C843.701 119.21 842.152 119.727 840.259 120.588L851.616 63.395C853.509 54.9538 854.37 48.9244 854.37 44.6177C854.37 38.2437 852.477 36.0042 849.551 36.0042C842.668 36.0042 835.613 48.9244 834.58 59.2605L832.859 58.7437C834.236 48.7521 843.012 28.2521 855.402 28.2521C861.425 28.2521 865.555 32.9034 865.555 42.7227C865.555 46.1681 865.039 49.2689 864.694 53.0588L860.909 70.8025H861.081C868.652 52.0252 881.214 28.2521 896.529 28.2521C906.682 28.2521 912.705 38.5882 908.059 46.6849C906.51 49.4412 904.445 50.9916 902.208 50.9916C901.52 50.9916 900.659 50.6471 899.971 50.3025C897.046 48.5798 897.218 45.1345 897.906 42.5504C899.455 36.3487 895.841 34.1092 892.227 34.1092Z" fill="url(#paint12_linear_1930_26680)"/>
<path d="M977.695 133.336C973.393 152.63 945.688 164 921.424 164C903.356 164 886.492 157.798 886.492 146.256C886.492 133.508 907.314 121.794 920.736 117.66C909.895 116.109 901.291 112.836 901.291 104.223C901.291 95.9538 909.207 89.9244 917.467 87.5126C912.648 83.2059 910.067 77.3487 910.067 70.8025C910.067 51.6807 926.931 28.0798 954.12 28.0798C960.487 28.0798 965.993 29.2857 970.467 31.5252C973.393 26.1849 979.588 19.6387 987.847 19.6387C998.516 19.6387 997.312 30.8361 991.289 30.8361C987.675 30.8361 985.438 26.7017 980.62 26.5294C976.49 26.3571 973.221 29.2857 971.672 32.2143C979.416 36.521 984.062 43.9286 984.062 52.542C984.062 71.4916 967.542 95.2647 940.181 95.2647C931.233 95.2647 924.006 92.8529 918.843 88.7185C913.337 90.7857 910.411 94.9202 910.067 98.3655C909.035 116.282 984.75 100.605 977.695 133.336ZM921.08 70.2857C921.08 83.3782 927.964 93.542 940.87 93.542C960.143 93.542 973.221 70.8025 973.221 52.8866C973.221 39.6219 966.165 29.6303 953.431 29.6303C934.33 29.6303 921.08 52.0252 921.08 70.2857ZM897.333 145.223C897.333 155.903 907.83 162.105 924.35 162.105C943.107 162.105 962.207 154.181 965.477 138.504C969.607 119.382 943.451 120.588 923.317 118.004C910.927 122.655 897.333 133.164 897.333 145.223Z" fill="url(#paint13_linear_1930_26680)"/>
<path d="M977.695 133.336C973.393 152.63 945.688 164 921.424 164C903.356 164 886.492 157.798 886.492 146.256C886.492 133.508 907.314 121.794 920.736 117.66C909.895 116.109 901.291 112.836 901.291 104.223C901.291 95.9538 909.207 89.9244 917.467 87.5126C912.648 83.2059 910.067 77.3487 910.067 70.8025C910.067 51.6807 926.931 28.0798 954.12 28.0798C960.487 28.0798 965.993 29.2857 970.467 31.5252C973.393 26.1849 979.588 19.6387 987.847 19.6387C998.516 19.6387 997.312 30.8361 991.289 30.8361C987.675 30.8361 985.438 26.7017 980.62 26.5294C976.49 26.3571 973.221 29.2857 971.672 32.2143C979.416 36.521 984.062 43.9286 984.062 52.542C984.062 71.4916 967.542 95.2647 940.181 95.2647C931.233 95.2647 924.006 92.8529 918.843 88.7185C913.337 90.7857 910.411 94.9202 910.067 98.3655C909.035 116.282 984.75 100.605 977.695 133.336ZM921.08 70.2857C921.08 83.3782 927.964 93.542 940.87 93.542C960.143 93.542 973.221 70.8025 973.221 52.8866C973.221 39.6219 966.165 29.6303 953.431 29.6303C934.33 29.6303 921.08 52.0252 921.08 70.2857ZM897.333 145.223C897.333 155.903 907.83 162.105 924.35 162.105C943.107 162.105 962.207 154.181 965.477 138.504C969.607 119.382 943.451 120.588 923.317 118.004C910.927 122.655 897.333 133.164 897.333 145.223Z" fill="url(#paint14_linear_1930_26680)"/>
<path d="M1084 65.6345C1084 95.9538 1058.02 121.45 1027.39 121.45C1003.64 121.45 989.528 105.945 989.528 83.895C989.528 53.4034 1016.2 27.7353 1046.49 27.7353C1070.23 27.7353 1084 43.584 1084 65.6345ZM1000.89 87.1681C1000.89 105.945 1011.04 119.727 1028.42 119.727C1054.92 119.727 1072.3 87.1681 1072.3 62.1891C1072.3 43.584 1062.66 29.458 1045.45 29.458C1019.13 29.458 1000.89 62.0168 1000.89 87.1681Z" fill="url(#paint15_linear_1930_26680)"/>
<path d="M1084 65.6345C1084 95.9538 1058.02 121.45 1027.39 121.45C1003.64 121.45 989.528 105.945 989.528 83.895C989.528 53.4034 1016.2 27.7353 1046.49 27.7353C1070.23 27.7353 1084 43.584 1084 65.6345ZM1000.89 87.1681C1000.89 105.945 1011.04 119.727 1028.42 119.727C1054.92 119.727 1072.3 87.1681 1072.3 62.1891C1072.3 43.584 1062.66 29.458 1045.45 29.458C1019.13 29.458 1000.89 62.0168 1000.89 87.1681Z" fill="url(#paint16_linear_1930_26680)"/>
<defs>
<linearGradient id="paint0_linear_1930_26680" x1="-2.06497" y1="0.581437" x2="-2.06497" y2="120.72" gradientUnits="userSpaceOnUse">
<stop stop-color="white"/>
<stop offset="1" stop-color="#999999" stop-opacity="0.42"/>
</linearGradient>
<linearGradient id="paint1_linear_1930_26680" x1="-2.06497" y1="0.581437" x2="-2.06497" y2="120.72" gradientUnits="userSpaceOnUse">
<stop stop-color="white"/>
<stop offset="1" stop-color="#999999" stop-opacity="0.42"/>
</linearGradient>
<linearGradient id="paint2_linear_1930_26680" x1="-2.06497" y1="0.581437" x2="-2.06497" y2="120.72" gradientUnits="userSpaceOnUse">
<stop stop-color="white"/>
<stop offset="1" stop-color="#999999" stop-opacity="0.42"/>
</linearGradient>
<linearGradient id="paint3_linear_1930_26680" x1="0" y1="0.179391" x2="0" y2="164.179" gradientUnits="userSpaceOnUse">
<stop stop-color="white"/>
<stop offset="1" stop-color="#999999" stop-opacity="0.42"/>
</linearGradient>
<linearGradient id="paint4_linear_1930_26680" x1="901.307" y1="0.179375" x2="1006.01" y2="142.749" gradientUnits="userSpaceOnUse">
<stop stop-color="#FEDBA3"/>
<stop offset="1" stop-color="#8A622E"/>
</linearGradient>
<linearGradient id="paint5_linear_1930_26680" x1="0" y1="0.179391" x2="0" y2="164.179" gradientUnits="userSpaceOnUse">
<stop stop-color="white"/>
<stop offset="1" stop-color="#999999" stop-opacity="0.42"/>
</linearGradient>
<linearGradient id="paint6_linear_1930_26680" x1="901.307" y1="0.179375" x2="1006.01" y2="142.749" gradientUnits="userSpaceOnUse">
<stop stop-color="#FEDBA3"/>
<stop offset="1" stop-color="#8A622E"/>
</linearGradient>
<linearGradient id="paint7_linear_1930_26680" x1="0" y1="0.179391" x2="0" y2="164.179" gradientUnits="userSpaceOnUse">
<stop stop-color="white"/>
<stop offset="1" stop-color="#999999" stop-opacity="0.42"/>
</linearGradient>
<linearGradient id="paint8_linear_1930_26680" x1="901.307" y1="0.179375" x2="1006.01" y2="142.749" gradientUnits="userSpaceOnUse">
<stop stop-color="#FEDBA3"/>
<stop offset="1" stop-color="#8A622E"/>
</linearGradient>
<linearGradient id="paint9_linear_1930_26680" x1="0" y1="0.179391" x2="0" y2="164.179" gradientUnits="userSpaceOnUse">
<stop stop-color="white"/>
<stop offset="1" stop-color="#999999" stop-opacity="0.42"/>
</linearGradient>
<linearGradient id="paint10_linear_1930_26680" x1="901.307" y1="0.179375" x2="1006.01" y2="142.749" gradientUnits="userSpaceOnUse">
<stop stop-color="#FEDBA3"/>
<stop offset="1" stop-color="#8A622E"/>
</linearGradient>
<linearGradient id="paint11_linear_1930_26680" x1="0" y1="0.179391" x2="0" y2="164.179" gradientUnits="userSpaceOnUse">
<stop stop-color="white"/>
<stop offset="1" stop-color="#999999" stop-opacity="0.42"/>
</linearGradient>
<linearGradient id="paint12_linear_1930_26680" x1="901.307" y1="0.179375" x2="1006.01" y2="142.749" gradientUnits="userSpaceOnUse">
<stop stop-color="#FEDBA3"/>
<stop offset="1" stop-color="#8A622E"/>
</linearGradient>
<linearGradient id="paint13_linear_1930_26680" x1="0" y1="0.179391" x2="0" y2="164.179" gradientUnits="userSpaceOnUse">
<stop stop-color="white"/>
<stop offset="1" stop-color="#999999" stop-opacity="0.42"/>
</linearGradient>
<linearGradient id="paint14_linear_1930_26680" x1="901.307" y1="0.179375" x2="1006.01" y2="142.749" gradientUnits="userSpaceOnUse">
<stop stop-color="#FEDBA3"/>
<stop offset="1" stop-color="#8A622E"/>
</linearGradient>
<linearGradient id="paint15_linear_1930_26680" x1="0" y1="0.179391" x2="0" y2="164.179" gradientUnits="userSpaceOnUse">
<stop stop-color="white"/>
<stop offset="1" stop-color="#999999" stop-opacity="0.42"/>
</linearGradient>
<linearGradient id="paint16_linear_1930_26680" x1="901.307" y1="0.179375" x2="1006.01" y2="142.749" gradientUnits="userSpaceOnUse">
<stop stop-color="#FEDBA3"/>
<stop offset="1" stop-color="#8A622E"/>
</linearGradient>
</defs>
</svg>
