<svg width="139" height="17" viewBox="0 0 139 17" fill="none" xmlns="http://www.w3.org/2000/svg">
<rect x="0.123494" y="0.123494" width="138.753" height="16.106" rx="8.02711" stroke="#7E7E7E" stroke-width="0.246988"/>
<path d="M26.3557 9.47468H26.4038L25.5742 10.9782H20.8129L20.837 10.9176C21.33 10.8569 21.5945 10.5538 21.7027 9.97181L23.0252 3.14542C23.0974 2.7938 22.881 2.5998 22.3399 2.5513L22.3519 2.49067H27.2214L27.4739 3.99418H27.4018C27.2695 3.55767 27.017 2.58767 25.7065 2.58767H23.903L23.1816 6.34643H25.0572C25.6223 6.34643 26.0311 5.76443 26.1754 5.32793H26.2475C25.971 6.16455 25.8748 6.64955 25.8267 7.48618H25.7546C25.7546 7.02543 25.5983 6.46768 25.0332 6.46768H23.1575L22.3038 10.8812H24.0953C25.4059 10.8812 26.0672 9.91118 26.3557 9.47468Z" fill="url(#paint0_linear_1930_26574)"/>
<path d="M33.7177 8.86843C33.4532 9.59593 32.9723 11.0146 32.0705 11.0146C31.4693 11.0146 31.2289 10.3962 31.4573 9.29281L31.9262 7.06181C32.2028 5.76443 31.9262 4.9763 31.2409 4.9763C30.0145 4.9763 28.6919 7.51043 28.3433 9.30493L28.0186 10.9782C27.8743 10.9176 27.7541 10.8812 27.6339 10.8812C27.5136 10.8812 27.3934 10.9176 27.2371 10.9782L28.0186 6.95268C28.1629 6.22518 28.4034 5.0248 27.8864 5.0248C27.5497 5.0248 27.2251 5.5098 26.7922 6.64955L26.684 6.6253C26.9485 5.8978 27.4295 4.47918 28.3312 4.47918C28.9324 4.47918 29.1488 5.1218 28.9324 6.20093L28.5837 7.99543C29.257 6.16455 30.5315 4.50343 31.7339 4.50343C32.6116 4.50343 33.0444 5.38855 32.7919 6.60105L32.3831 8.54106C32.2268 9.26856 31.9984 10.4689 32.5154 10.4689C32.852 10.4689 33.1767 9.98393 33.6095 8.84418L33.7177 8.86843Z" fill="url(#paint1_linear_1930_26574)"/>
<path d="M37.6016 4.89143C36.5917 4.89143 35.4495 7.37706 35.197 8.60168L34.716 10.9782C34.5717 10.9176 34.4515 10.8812 34.3313 10.8812C34.211 10.8812 34.1028 10.9176 33.9706 10.9782L34.7641 6.95268C34.8964 6.35855 34.9565 5.93418 34.9565 5.63105C34.9565 5.18243 34.8242 5.0248 34.6198 5.0248C34.1389 5.0248 33.6459 5.93418 33.5738 6.66168L33.4536 6.6253C33.5498 5.92205 34.163 4.47918 35.0286 4.47918C35.4495 4.47918 35.738 4.80655 35.738 5.49768C35.738 5.74018 35.7019 5.95843 35.6779 6.22518L35.4134 7.47406H35.4254C35.9544 6.15243 36.8321 4.47918 37.9022 4.47918C38.6116 4.47918 39.0324 5.20668 38.7078 5.77655C38.5996 5.97055 38.4553 6.07968 38.299 6.07968C38.2509 6.07968 38.1908 6.05543 38.1427 6.03118C37.9383 5.90993 37.9503 5.66743 37.9984 5.48555C38.1066 5.04905 37.8541 4.89143 37.6016 4.89143Z" fill="url(#paint2_linear_1930_26574)"/>
<path d="M41.0489 3.0363C41.0489 3.43642 40.7603 3.78805 40.3515 3.78805C40.0389 3.78805 39.7624 3.59405 39.7624 3.20605C39.7624 2.80592 40.063 2.47855 40.5078 2.47855C40.7844 2.47855 41.0489 2.6483 41.0489 3.0363ZM41.4937 8.86843C41.2292 9.59593 40.7483 11.0146 39.8465 11.0146C39.2454 11.0146 39.0049 10.3719 39.2333 9.29281L39.7383 6.95268C39.8946 6.22518 40.075 5.0248 39.558 5.0248C39.2213 5.0248 38.8967 5.5098 38.4639 6.64955L38.3556 6.6253C38.6202 5.8978 39.1011 4.47918 40.0028 4.47918C40.604 4.47918 40.8806 5.1218 40.6521 6.20093L40.1471 8.54106C39.9908 9.26856 39.7744 10.4689 40.2914 10.4689C40.6281 10.4689 40.9527 9.98393 41.3855 8.84418L41.4937 8.86843Z" fill="url(#paint3_linear_1930_26574)"/>
<path d="M47.0255 13.3547L47.0135 13.4032L45.21 13.8761L45.0778 13.8033L46.1839 8.04393H46.1358C45.5707 9.57168 44.3563 10.9539 43.166 10.9539C42.2643 10.9539 41.6391 10.1537 41.6391 8.88056C41.6391 6.60105 43.6349 4.47918 45.8833 4.47918C46.4965 4.47918 46.8332 4.6368 47.1698 4.85505H47.1939L47.5305 4.47918H47.6387L46.0516 12.7484C46.0396 12.8091 46.0276 12.8697 46.0276 12.9424C46.0276 13.2941 46.3282 13.4032 46.6167 13.4032C46.761 13.4032 46.9173 13.3789 47.0255 13.3547ZM42.4446 8.86843C42.4446 9.85056 42.8895 10.4811 43.5989 10.4811C44.8373 10.4811 45.9795 8.55318 46.4003 6.89206L46.5446 6.15243C46.6047 5.86143 46.6408 5.61893 46.6408 5.4128C46.6408 4.8308 46.3643 4.61255 45.8112 4.61255C43.9355 4.61255 42.4446 7.06181 42.4446 8.86843Z" fill="url(#paint4_linear_1930_26574)"/>
<path d="M53.895 10.4932L53.883 10.5417L52.0795 11.0146L51.9232 10.9418L52.5244 7.86206C51.9833 9.40193 50.8411 10.9903 49.6628 10.9903C48.9173 10.9903 48.5326 10.4447 48.5326 9.54743C48.5326 9.32918 48.5566 9.07456 48.6047 8.79568L49.0015 6.95268C49.1217 6.37068 49.1698 5.93418 49.1698 5.64318C49.1698 5.20668 49.0616 5.0248 48.8452 5.0248C48.3763 5.0248 47.8713 5.93418 47.8112 6.64955L47.691 6.6253C47.7631 5.92205 48.3883 4.47918 49.266 4.47918C49.6868 4.47918 49.9874 4.80655 49.9874 5.53405C49.9874 5.78868 49.9514 6.06755 49.8912 6.39493L49.4464 8.43193C49.3742 8.80781 49.3382 9.13518 49.3382 9.40193C49.3382 10.1537 49.6147 10.5174 50.1197 10.5174C51.2739 10.5174 52.2839 8.58956 52.7047 6.92843L53.1616 4.51555C53.3179 4.57618 53.4381 4.60043 53.5584 4.60043C53.6786 4.60043 53.7988 4.57618 53.9431 4.51555L52.9091 9.88693C52.8971 9.94756 52.8851 10.0082 52.8851 10.0809C52.8851 10.4326 53.1977 10.5417 53.4983 10.5417C53.6425 10.5417 53.7868 10.5174 53.895 10.4932Z" fill="url(#paint5_linear_1930_26574)"/>
<path d="M59.6533 8.92906C59.3527 9.74143 58.2466 11.0146 56.5873 11.0146C55.1085 11.0146 54.1346 10.0082 54.1346 8.44406C54.1346 6.44343 55.6375 4.43068 57.6935 4.43068C58.8477 4.43068 59.6653 5.06118 59.6653 5.90993C59.6653 7.65593 56.2387 8.00756 55.0002 8.00756C54.9882 8.12881 54.9882 8.25006 54.9882 8.37131C54.9882 9.70506 55.7577 10.6144 56.9721 10.6144C58.2105 10.6144 59.2686 9.66868 59.5571 8.88056L59.6533 8.92906ZM57.6334 4.55193C56.1304 4.55193 55.1806 6.4313 55.0123 7.91056C56.2747 7.91056 58.9319 7.47406 58.9319 5.8008C58.9319 5.06118 58.4149 4.55193 57.6334 4.55193Z" fill="url(#paint6_linear_1930_26574)"/>
<path d="M65.4835 8.92906C65.1829 9.74143 64.0768 11.0146 62.3935 11.0146C60.8906 11.0146 59.9648 10.0082 59.9648 8.41981C59.9648 6.26155 61.6601 4.38218 63.5237 4.38218C64.8463 4.38218 65.4474 5.34005 65.3152 6.00693C65.2551 6.31005 65.0507 6.46768 64.8703 6.46768C64.6539 6.46768 64.4495 6.24943 64.5337 5.8008C64.6299 5.25518 64.4134 4.4913 63.5478 4.4913C62.2011 4.4913 60.8064 6.34643 60.8064 8.27431C60.8064 9.70506 61.5759 10.6144 62.7903 10.6144C64.0407 10.6144 65.0988 9.66868 65.3873 8.88056L65.4835 8.92906Z" fill="url(#paint7_linear_1930_26574)"/>
<path d="M71.3014 8.92906C71.0008 9.74143 69.8947 11.0146 68.2355 11.0146C66.7566 11.0146 65.7827 10.0082 65.7827 8.44406C65.7827 6.44343 67.2856 4.43068 69.3416 4.43068C70.4959 4.43068 71.3135 5.06118 71.3135 5.90993C71.3135 7.65593 67.8868 8.00756 66.6484 8.00756C66.6364 8.12881 66.6364 8.25006 66.6364 8.37131C66.6364 9.70506 67.4059 10.6144 68.6202 10.6144C69.8586 10.6144 70.9167 9.66868 71.2052 8.88056L71.3014 8.92906ZM69.2815 4.55193C67.7786 4.55193 66.8287 6.4313 66.6604 7.91056C67.9229 7.91056 70.58 7.47406 70.58 5.8008C70.58 5.06118 70.063 4.55193 69.2815 4.55193Z" fill="url(#paint8_linear_1930_26574)"/>
<path d="M78.4903 8.86843C78.2258 9.59593 77.7448 11.0146 76.8431 11.0146C76.2419 11.0146 76.0015 10.3962 76.2299 9.29281L76.6988 7.06181C76.9753 5.76443 76.6988 4.9763 76.0135 4.9763C74.7871 4.9763 73.4645 7.51043 73.1158 9.30493L72.7912 10.9782C72.6469 10.9176 72.5267 10.8812 72.4065 10.8812C72.2862 10.8812 72.166 10.9176 72.0097 10.9782L72.7912 6.95268C72.9355 6.22518 73.176 5.0248 72.6589 5.0248C72.3223 5.0248 71.9977 5.5098 71.5648 6.64955L71.4566 6.6253C71.7211 5.8978 72.2021 4.47918 73.1038 4.47918C73.705 4.47918 73.9214 5.1218 73.705 6.20093L73.3563 7.99543C74.0296 6.16455 75.3041 4.50343 76.5064 4.50343C77.3841 4.50343 77.817 5.38855 77.5645 6.60105L77.1557 8.54106C76.9994 9.26856 76.7709 10.4689 77.288 10.4689C77.6246 10.4689 77.9492 9.98393 78.3821 8.84418L78.4903 8.86843Z" fill="url(#paint9_linear_1930_26574)"/>
<path d="M83.3663 6.84355C82.6208 9.06243 81.1179 11.1116 79.7472 11.1116C78.7853 11.1116 78.4727 10.0931 78.4727 9.18368C78.4727 7.18305 79.9997 4.52768 81.9956 4.52768C82.9695 4.52768 83.4745 5.15818 83.5707 5.8008L84.0636 3.43642C84.1237 3.15755 83.739 3.01205 83.0537 3.01205L83.0777 2.9393C83.8111 2.9393 84.5686 2.92717 84.9413 2.49067L85.0014 2.5028L83.8111 8.54106C83.6789 9.26856 83.4384 10.4689 83.9554 10.4689C84.2921 10.4689 84.6167 9.98393 85.0495 8.84418L85.1577 8.86843C84.8932 9.59593 84.4123 11.0146 83.5105 11.0146C82.9094 11.0146 82.6809 10.3962 82.8973 9.29281L83.3663 6.84355ZM79.2543 9.06243C79.2543 9.95968 79.5909 10.5538 80.168 10.5538C81.2862 10.5538 82.8132 8.37131 83.4745 6.22518C83.4745 5.72805 83.3422 4.86718 82.2601 4.86718C80.4085 4.86718 79.2543 7.36493 79.2543 9.06243Z" fill="url(#paint10_linear_1930_26574)"/>
<path d="M91.764 7.11031C91.764 9.24431 89.9485 11.0388 87.8083 11.0388C86.1491 11.0388 85.1632 9.94756 85.1632 8.39556C85.1632 6.24943 87.0268 4.4428 89.1429 4.4428C90.8022 4.4428 91.764 5.5583 91.764 7.11031ZM85.9567 8.62593C85.9567 9.94756 86.6661 10.9176 87.8805 10.9176C89.7321 10.9176 90.9464 8.62593 90.9464 6.8678C90.9464 5.5583 90.2731 4.56405 89.0708 4.56405C87.2312 4.56405 85.9567 6.85568 85.9567 8.62593Z" fill="url(#paint11_linear_1930_26574)"/>
<path d="M100.24 8.92906C99.9395 9.74143 98.8333 11.0146 97.15 11.0146C95.6471 11.0146 94.7213 10.0082 94.7213 8.41981C94.7213 6.26155 96.4166 4.38218 98.2802 4.38218C99.6028 4.38218 100.204 5.34005 100.072 6.00693C100.012 6.31005 99.8072 6.46768 99.6269 6.46768C99.4104 6.46768 99.206 6.24943 99.2902 5.8008C99.3864 5.25518 99.17 4.4913 98.3043 4.4913C96.9577 4.4913 95.563 6.34643 95.563 8.27431C95.563 9.70506 96.3325 10.6144 97.5468 10.6144C98.7972 10.6144 99.8553 9.66868 100.144 8.88056L100.24 8.92906Z" fill="url(#paint12_linear_1930_26574)"/>
<path d="M107.27 7.11031C107.27 9.24431 105.454 11.0388 103.314 11.0388C101.655 11.0388 100.669 9.94756 100.669 8.39556C100.669 6.24943 102.532 4.4428 104.648 4.4428C106.308 4.4428 107.27 5.5583 107.27 7.11031ZM101.462 8.62593C101.462 9.94756 102.172 10.9176 103.386 10.9176C105.238 10.9176 106.452 8.62593 106.452 6.8678C106.452 5.5583 105.779 4.56405 104.576 4.56405C102.737 4.56405 101.462 6.85568 101.462 8.62593Z" fill="url(#paint13_linear_1930_26574)"/>
<path d="M118.187 8.86843C117.923 9.59593 117.442 11.0146 116.54 11.0146C115.939 11.0146 115.699 10.3962 115.927 9.29281L116.396 7.06181C116.672 5.76443 116.396 4.9763 115.711 4.9763C114.484 4.9763 113.162 7.51043 112.813 9.30493H112.801L112.452 10.9782C112.308 10.9054 112.188 10.8812 112.067 10.8812C111.947 10.8812 111.827 10.9054 111.683 10.9661L112.5 7.06181C112.777 5.76443 112.5 4.9763 111.815 4.9763C110.589 4.9763 109.266 7.51043 108.917 9.30493L108.593 10.9782C108.448 10.9176 108.328 10.8812 108.208 10.8812C108.088 10.8812 107.968 10.9176 107.811 10.9782L108.593 6.95268C108.737 6.22518 108.977 5.0248 108.46 5.0248C108.124 5.0248 107.799 5.5098 107.366 6.64955L107.258 6.6253C107.523 5.8978 108.004 4.47918 108.905 4.47918C109.507 4.47918 109.723 5.1218 109.507 6.20093L109.158 7.99543C109.831 6.16455 111.106 4.50343 112.308 4.50343C113.186 4.50343 113.619 5.38855 113.366 6.60105L113.089 7.89843C113.775 6.10393 115.025 4.50343 116.204 4.50343C117.081 4.50343 117.514 5.38855 117.262 6.60105L116.853 8.54106C116.697 9.26856 116.468 10.4689 116.985 10.4689C117.322 10.4689 117.646 9.98393 118.079 8.84418L118.187 8.86843Z" fill="url(#paint14_linear_1930_26574)"/>
<defs>
<linearGradient id="paint0_linear_1930_26574" x1="117.861" y1="14.932" x2="20.3406" y2="14.932" gradientUnits="userSpaceOnUse">
<stop stop-color="white"/>
<stop offset="1" stop-color="#C2C2C2"/>
</linearGradient>
<linearGradient id="paint1_linear_1930_26574" x1="117.861" y1="14.932" x2="20.3406" y2="14.932" gradientUnits="userSpaceOnUse">
<stop stop-color="white"/>
<stop offset="1" stop-color="#C2C2C2"/>
</linearGradient>
<linearGradient id="paint2_linear_1930_26574" x1="117.861" y1="14.932" x2="20.3406" y2="14.932" gradientUnits="userSpaceOnUse">
<stop stop-color="white"/>
<stop offset="1" stop-color="#C2C2C2"/>
</linearGradient>
<linearGradient id="paint3_linear_1930_26574" x1="117.861" y1="14.932" x2="20.3406" y2="14.932" gradientUnits="userSpaceOnUse">
<stop stop-color="white"/>
<stop offset="1" stop-color="#C2C2C2"/>
</linearGradient>
<linearGradient id="paint4_linear_1930_26574" x1="117.861" y1="14.932" x2="20.3406" y2="14.932" gradientUnits="userSpaceOnUse">
<stop stop-color="white"/>
<stop offset="1" stop-color="#C2C2C2"/>
</linearGradient>
<linearGradient id="paint5_linear_1930_26574" x1="117.861" y1="14.932" x2="20.3406" y2="14.932" gradientUnits="userSpaceOnUse">
<stop stop-color="white"/>
<stop offset="1" stop-color="#C2C2C2"/>
</linearGradient>
<linearGradient id="paint6_linear_1930_26574" x1="117.861" y1="14.932" x2="20.3406" y2="14.932" gradientUnits="userSpaceOnUse">
<stop stop-color="white"/>
<stop offset="1" stop-color="#C2C2C2"/>
</linearGradient>
<linearGradient id="paint7_linear_1930_26574" x1="117.861" y1="14.932" x2="20.3406" y2="14.932" gradientUnits="userSpaceOnUse">
<stop stop-color="white"/>
<stop offset="1" stop-color="#C2C2C2"/>
</linearGradient>
<linearGradient id="paint8_linear_1930_26574" x1="117.861" y1="14.932" x2="20.3406" y2="14.932" gradientUnits="userSpaceOnUse">
<stop stop-color="white"/>
<stop offset="1" stop-color="#C2C2C2"/>
</linearGradient>
<linearGradient id="paint9_linear_1930_26574" x1="117.861" y1="14.932" x2="20.3406" y2="14.932" gradientUnits="userSpaceOnUse">
<stop stop-color="white"/>
<stop offset="1" stop-color="#C2C2C2"/>
</linearGradient>
<linearGradient id="paint10_linear_1930_26574" x1="117.861" y1="14.932" x2="20.3406" y2="14.932" gradientUnits="userSpaceOnUse">
<stop stop-color="white"/>
<stop offset="1" stop-color="#C2C2C2"/>
</linearGradient>
<linearGradient id="paint11_linear_1930_26574" x1="117.861" y1="14.932" x2="20.3406" y2="14.932" gradientUnits="userSpaceOnUse">
<stop stop-color="white"/>
<stop offset="1" stop-color="#C2C2C2"/>
</linearGradient>
<linearGradient id="paint12_linear_1930_26574" x1="117.861" y1="14.932" x2="20.3406" y2="14.932" gradientUnits="userSpaceOnUse">
<stop stop-color="white"/>
<stop offset="1" stop-color="#C2C2C2"/>
</linearGradient>
<linearGradient id="paint13_linear_1930_26574" x1="117.861" y1="14.932" x2="20.3406" y2="14.932" gradientUnits="userSpaceOnUse">
<stop stop-color="white"/>
<stop offset="1" stop-color="#C2C2C2"/>
</linearGradient>
<linearGradient id="paint14_linear_1930_26574" x1="117.861" y1="14.932" x2="20.3406" y2="14.932" gradientUnits="userSpaceOnUse">
<stop stop-color="white"/>
<stop offset="1" stop-color="#C2C2C2"/>
</linearGradient>
</defs>
</svg>
