<svg width="15" height="15" viewBox="0 0 15 15" fill="none" xmlns="http://www.w3.org/2000/svg">
<g clip-path="url(#clip0_1930_26604)">
<path fill-rule="evenodd" clip-rule="evenodd" d="M7.17246 13.9996C8.96961 10.1212 10.4762 6.24154 12.6566 2.40329C13.241 2.55193 13.8768 2.63563 14.4256 2.31044C15.0879 1.91811 15.1421 1.16528 14.8139 0.614282C14.4293 -0.0308763 13.7588 -0.227475 13.1053 -0.132445C12.1123 0.0105361 11.5085 0.69667 10.9236 1.49309C10.4269 1.26205 9.93523 1.00879 9.44352 0.756391C7.87898 -0.0491846 6.32066 -0.851273 4.47302 -0.985971C2.4565 -1.13244 1.10347 -0.1137 0.454065 1.2141C0.144055 1.84836 -0.00494844 2.55194 0.0111936 3.23415C0.0273356 3.91941 0.209865 4.58244 0.56292 5.13082C1.03973 5.87188 1.82448 6.40065 2.92545 6.48914C3.78305 6.59594 4.63485 6.3867 5.4105 5.85924C6.13647 5.36447 6.60708 4.61906 6.23043 3.7106C5.93408 2.99483 5.14312 2.66702 4.4635 2.97913C3.46766 3.43685 3.46435 6.28905 1.82076 5.94991C1.36547 5.72629 1.01034 5.39455 0.753313 4.99525C0.425092 4.48654 0.255807 3.86841 0.240907 3.22935C0.226007 2.58681 0.366318 1.92334 0.658117 1.32614C1.26944 0.0754879 2.54798 -0.882223 4.45729 -0.743601C6.2594 -0.61239 7.79786 0.179236 9.34253 0.97435C9.8181 1.2189 10.2945 1.46432 10.7833 1.69274C9.0975 4.1766 7.60498 8.13212 6.30534 11.0105L4.67252 6.70928L4.45812 6.79908L7.17287 14L7.17246 13.9996ZM12.7899 2.18751C13.0581 1.75857 13.3549 1.28124 13.6901 0.916808C14.4235 0.120387 14.8735 0.84619 14.7451 1.51837C14.6967 1.76859 14.5361 1.96563 14.313 2.09815C13.8437 2.3767 13.2928 2.30651 12.7903 2.18707L12.7899 2.18751Z" fill="url(#paint0_linear_1930_26604)"/>
<path fill-rule="evenodd" clip-rule="evenodd" d="M7.17246 13.9996C8.96961 10.1212 10.4762 6.24154 12.6566 2.40329C13.241 2.55193 13.8768 2.63563 14.4256 2.31044C15.0879 1.91811 15.1421 1.16528 14.8139 0.614282C14.4293 -0.0308763 13.7588 -0.227475 13.1053 -0.132445C12.1123 0.0105361 11.5085 0.69667 10.9236 1.49309C10.4269 1.26205 9.93523 1.00879 9.44352 0.756391C7.87898 -0.0491846 6.32066 -0.851273 4.47302 -0.985971C2.4565 -1.13244 1.10347 -0.1137 0.454065 1.2141C0.144055 1.84836 -0.00494844 2.55194 0.0111936 3.23415C0.0273356 3.91941 0.209865 4.58244 0.56292 5.13082C1.03973 5.87188 1.82448 6.40065 2.92545 6.48914C3.78305 6.59594 4.63485 6.3867 5.4105 5.85924C6.13647 5.36447 6.60708 4.61906 6.23043 3.7106C5.93408 2.99483 5.14312 2.66702 4.4635 2.97913C3.46766 3.43685 3.46435 6.28905 1.82076 5.94991C1.36547 5.72629 1.01034 5.39455 0.753313 4.99525C0.425092 4.48654 0.255807 3.86841 0.240907 3.22935C0.226007 2.58681 0.366318 1.92334 0.658117 1.32614C1.26944 0.0754879 2.54798 -0.882223 4.45729 -0.743601C6.2594 -0.61239 7.79786 0.179236 9.34253 0.97435C9.8181 1.2189 10.2945 1.46432 10.7833 1.69274C9.0975 4.1766 7.60498 8.13212 6.30534 11.0105L4.67252 6.70928L4.45812 6.79908L7.17287 14L7.17246 13.9996ZM12.7899 2.18751C13.0581 1.75857 13.3549 1.28124 13.6901 0.916808C14.4235 0.120387 14.8735 0.84619 14.7451 1.51837C14.6967 1.76859 14.5361 1.96563 14.313 2.09815C13.8437 2.3767 13.2928 2.30651 12.7903 2.18707L12.7899 2.18751Z" fill="url(#paint1_linear_1930_26604)"/>
</g>
<defs>
<linearGradient id="paint0_linear_1930_26604" x1="12.6553" y1="9.50691" x2="-0.763014" y2="10.4341" gradientUnits="userSpaceOnUse">
<stop stop-color="#FEDBA3"/>
<stop offset="1" stop-color="#8A622E"/>
</linearGradient>
<linearGradient id="paint1_linear_1930_26604" x1="39.6207" y1="10.439" x2="-1.00629" y2="18.5162" gradientUnits="userSpaceOnUse">
<stop stop-color="#FEDBA3"/>
<stop offset="1" stop-color="#8A622E"/>
</linearGradient>
<clipPath id="clip0_1930_26604">
<rect width="15" height="15" fill="white"/>
</clipPath>
</defs>
</svg>
