<svg width="15" height="15" viewBox="0 0 15 15" fill="none" xmlns="http://www.w3.org/2000/svg">
<g clip-path="url(#clip0_1930_26610)">
<path fill-rule="evenodd" clip-rule="evenodd" d="M7.17222 13.9996C8.96936 10.1212 10.476 6.24154 12.6564 2.40329C13.2408 2.55193 13.8765 2.63563 14.4254 2.31044C15.0876 1.91811 15.1418 1.16528 14.8136 0.614282C14.4291 -0.0308763 13.7586 -0.227475 13.105 -0.132445C12.1121 0.0105361 11.5082 0.69667 10.9234 1.49309C10.4267 1.26205 9.93499 1.00879 9.44328 0.756391C7.87874 -0.0491846 6.32041 -0.851273 4.47277 -0.985971C2.45626 -1.13244 1.10323 -0.1137 0.453821 1.2141C0.143811 1.84836 -0.00519258 2.55194 0.0109495 3.23415C0.0270915 3.91941 0.209621 4.58244 0.562676 5.13082C1.03949 5.87188 1.82424 6.40065 2.92521 6.48914C3.7828 6.59594 4.63461 6.3867 5.41025 5.85924C6.13623 5.36447 6.60683 4.61906 6.23018 3.7106C5.93383 2.99483 5.14287 2.66702 4.46325 2.97913C3.46741 3.43685 3.4641 6.28905 1.82051 5.94991C1.36522 5.72629 1.0101 5.39455 0.753069 4.99525C0.424848 4.48654 0.255563 3.86841 0.240663 3.22935C0.225763 2.58681 0.366074 1.92334 0.657872 1.32614C1.2692 0.0754879 2.54773 -0.882223 4.45704 -0.743601C6.25916 -0.61239 7.79762 0.179236 9.34228 0.97435C9.81785 1.2189 10.2943 1.46432 10.7831 1.69274C9.09726 4.1766 7.60474 8.13212 6.3051 11.0105L4.67227 6.70928L4.45787 6.79908L7.17263 14L7.17222 13.9996ZM12.7896 2.18751C13.0578 1.75857 13.3546 1.28124 13.6899 0.916808C14.4233 0.120387 14.8732 0.84619 14.7449 1.51837C14.6965 1.76859 14.5359 1.96563 14.3128 2.09815C13.8434 2.3767 13.2925 2.30651 12.7901 2.18707L12.7896 2.18751Z" fill="url(#paint0_linear_1930_26610)"/>
<path fill-rule="evenodd" clip-rule="evenodd" d="M7.17222 13.9996C8.96936 10.1212 10.476 6.24154 12.6564 2.40329C13.2408 2.55193 13.8765 2.63563 14.4254 2.31044C15.0876 1.91811 15.1418 1.16528 14.8136 0.614282C14.4291 -0.0308763 13.7586 -0.227475 13.105 -0.132445C12.1121 0.0105361 11.5082 0.69667 10.9234 1.49309C10.4267 1.26205 9.93499 1.00879 9.44328 0.756391C7.87874 -0.0491846 6.32041 -0.851273 4.47277 -0.985971C2.45626 -1.13244 1.10323 -0.1137 0.453821 1.2141C0.143811 1.84836 -0.00519258 2.55194 0.0109495 3.23415C0.0270915 3.91941 0.209621 4.58244 0.562676 5.13082C1.03949 5.87188 1.82424 6.40065 2.92521 6.48914C3.7828 6.59594 4.63461 6.3867 5.41025 5.85924C6.13623 5.36447 6.60683 4.61906 6.23018 3.7106C5.93383 2.99483 5.14287 2.66702 4.46325 2.97913C3.46741 3.43685 3.4641 6.28905 1.82051 5.94991C1.36522 5.72629 1.0101 5.39455 0.753069 4.99525C0.424848 4.48654 0.255563 3.86841 0.240663 3.22935C0.225763 2.58681 0.366074 1.92334 0.657872 1.32614C1.2692 0.0754879 2.54773 -0.882223 4.45704 -0.743601C6.25916 -0.61239 7.79762 0.179236 9.34228 0.97435C9.81785 1.2189 10.2943 1.46432 10.7831 1.69274C9.09726 4.1766 7.60474 8.13212 6.3051 11.0105L4.67227 6.70928L4.45787 6.79908L7.17263 14L7.17222 13.9996ZM12.7896 2.18751C13.0578 1.75857 13.3546 1.28124 13.6899 0.916808C14.4233 0.120387 14.8732 0.84619 14.7449 1.51837C14.6965 1.76859 14.5359 1.96563 14.3128 2.09815C13.8434 2.3767 13.2925 2.30651 12.7901 2.18707L12.7896 2.18751Z" fill="url(#paint1_linear_1930_26610)"/>
</g>
<defs>
<linearGradient id="paint0_linear_1930_26610" x1="12.655" y1="9.50691" x2="-0.763258" y2="10.4341" gradientUnits="userSpaceOnUse">
<stop stop-color="#FEDBA3"/>
<stop offset="1" stop-color="#8A622E"/>
</linearGradient>
<linearGradient id="paint1_linear_1930_26610" x1="39.6205" y1="10.439" x2="-1.00653" y2="18.5162" gradientUnits="userSpaceOnUse">
<stop stop-color="#FEDBA3"/>
<stop offset="1" stop-color="#8A622E"/>
</linearGradient>
<clipPath id="clip0_1930_26610">
<rect width="15" height="15" fill="white"/>
</clipPath>
</defs>
</svg>
