<svg width="154" height="53" viewBox="0 0 154 53" fill="none" xmlns="http://www.w3.org/2000/svg">
<path d="M8.07325 36.7716C7.60182 39.1287 8.54468 40.7787 11.1965 41.0144L11.1375 41.3091H0L0.117858 41.0144C2.53394 40.7198 3.83037 39.2466 4.36073 36.418L10.8429 3.24108C11.1965 1.53215 10.1358 0.589287 7.48396 0.353572L7.54289 0.058928H18.6215L18.5036 0.353572C16.0876 0.648216 14.7911 2.12144 14.2608 4.95002L8.07325 36.7716Z" fill="url(#paint0_linear_1930_26573)"/>
<path d="M47.4529 31.0555C46.1564 34.5912 43.7993 41.4859 39.3796 41.4859C36.4332 41.4859 35.2546 38.4805 36.3743 33.118L38.6725 22.2751C40.0279 15.9697 38.6725 12.1393 35.3135 12.1393C29.3028 12.1393 22.8206 24.4555 21.1117 33.1769L19.5206 41.3091C18.8135 41.0144 18.2242 40.8377 17.6349 40.8377C17.0456 40.8377 16.4563 41.0144 15.6903 41.3091L19.5206 21.7447C20.2278 18.209 21.4063 12.375 18.8724 12.375C17.2224 12.375 15.6313 14.7322 13.5099 20.2715L12.9795 20.1537C14.276 16.6179 16.6331 9.72325 21.0528 9.72325C23.9992 9.72325 25.0599 12.8465 23.9992 18.0911L22.2903 26.8126C25.5903 17.9144 31.8367 9.84111 37.7296 9.84111C42.0314 9.84111 44.1529 14.1429 42.9154 20.0358L40.9118 29.4644C40.1457 33.0001 39.0261 38.8341 41.56 38.8341C43.21 38.8341 44.8011 36.4769 46.9225 30.9376L47.4529 31.0555Z" fill="url(#paint1_linear_1930_26573)"/>
<path d="M47.94 45.3163C46.9971 49.677 43.2257 52.4466 39.8078 52.4466C36.9792 52.4466 35.5649 50.502 35.5649 49.0288C35.5649 47.9091 36.331 47.0841 37.2738 47.0841C39.631 47.0841 38.2167 51.8574 40.5149 51.8574C42.1649 51.8574 43.2846 49.3234 44.0507 45.7877L51.7114 10.1947H46.9382L47.6453 9.72325H51.8293L52.3596 7.60182C53.4203 3.30001 56.6025 0.471431 60.4918 0.471431C65.6775 0.471431 65.265 5.53931 63.0257 5.53931C60.9632 5.53931 60.5507 1.23751 58.8418 1.23751C57.6043 1.23751 56.9561 3.65358 56.19 7.13038L55.6007 9.72325H61.0222L60.3739 10.1947H55.4828L47.94 45.3163Z" fill="url(#paint2_linear_1930_26573)"/>
<path d="M76.2553 20.5662C73.8392 29.9948 66.0606 41.8984 58.3409 41.8984C45.6712 41.8984 53.9212 9.72325 81.9124 9.72325L78.3178 29.4644C77.6695 33.0001 76.491 38.8341 79.0249 38.8341C80.6749 38.8341 82.266 36.4769 84.3874 30.9376L84.9178 31.0555C83.6214 34.5912 81.2642 41.4859 76.8445 41.4859C73.8981 41.4859 72.8374 38.4805 73.8392 33.118L76.2553 20.5662ZM77.6695 12.6697C51.3873 14.5554 50.6801 39.0698 60.4623 39.0698C68.0052 39.0698 76.0785 24.6912 77.4338 14.4376L77.6695 12.6697Z" fill="url(#paint3_linear_1930_26573)"/>
<path d="M117.495 31.0555C116.199 34.5912 113.842 41.4859 109.422 41.4859C106.476 41.4859 105.297 38.4805 106.417 33.118L108.715 22.2751C110.07 15.9697 108.715 12.1393 105.356 12.1393C99.3452 12.1393 92.863 24.4555 91.1541 33.1769L89.563 41.3091C88.8559 41.0144 88.2666 40.8377 87.6773 40.8377C87.088 40.8377 86.4987 41.0144 85.7327 41.3091L89.563 21.7447C90.2702 18.209 91.4488 12.375 88.9148 12.375C87.2648 12.375 85.6737 14.7322 83.5523 20.2715L83.0219 20.1537C84.3184 16.6179 86.6755 9.72325 91.0952 9.72325C94.0416 9.72325 95.1023 12.8465 94.0416 18.0911L92.3327 26.8126C95.6327 17.9144 101.879 9.84111 107.772 9.84111C112.074 9.84111 114.195 14.1429 112.958 20.0358L110.954 29.4644C110.188 33.0001 109.068 38.8341 111.602 38.8341C113.252 38.8341 114.843 36.4769 116.965 30.9376L117.495 31.0555Z" fill="url(#paint4_linear_1930_26573)"/>
<path d="M129.283 29.818C128.694 33.0591 125.099 41.4859 120.385 41.4859C116.908 41.4859 117.144 36.9484 117.969 32.5287L122.211 10.1947H117.792L117.91 9.72325H122.329L123.861 1.53215L127.692 1.23751L126.042 9.72325H131.228L130.697 10.1947H125.983L122.329 29.2287C121.74 32.293 120.326 38.5984 122.801 38.5984C125.276 38.5984 128.163 32.4108 128.988 29.6412L129.283 29.818Z" fill="url(#paint5_linear_1930_26573)"/>
<path d="M141.459 2.71073C141.459 4.65538 140.045 6.36431 138.041 6.36431C136.509 6.36431 135.154 5.42145 135.154 3.53573C135.154 1.59108 136.627 0 138.807 0C140.163 0 141.459 0.825003 141.459 2.71073ZM143.639 31.0555C142.343 34.5912 139.986 41.4859 135.566 41.4859C132.62 41.4859 131.441 38.3627 132.561 33.118L135.036 21.7447C135.802 18.209 136.686 12.375 134.152 12.375C132.502 12.375 130.911 14.7322 128.789 20.2715L128.259 20.1537C129.555 16.6179 131.913 9.72325 136.332 9.72325C139.279 9.72325 140.634 12.8465 139.514 18.0911L137.039 29.4644C136.273 33.0001 135.213 38.8341 137.747 38.8341C139.397 38.8341 140.988 36.4769 143.109 30.9376L143.639 31.0555Z" fill="url(#paint6_linear_1930_26573)"/>
<path d="M154 31.0555C152.703 34.5912 150.346 41.4859 145.927 41.4859C142.98 41.4859 141.861 38.4805 142.921 33.118L148.578 4.65538C148.873 3.30001 146.987 2.59287 143.628 2.59287L143.746 2.23929C147.341 2.23929 151.112 2.18037 152.939 0.058928L153.234 0.117856L147.4 29.4644C146.693 33.0001 145.573 38.8341 148.107 38.8341C149.757 38.8341 151.348 36.4769 153.469 30.9376L154 31.0555Z" fill="url(#paint7_linear_1930_26573)"/>
<defs>
<linearGradient id="paint0_linear_1930_26573" x1="128.045" y1="28.9455" x2="-2.09597" y2="62.6008" gradientUnits="userSpaceOnUse">
<stop stop-color="#FEDBA3"/>
<stop offset="1" stop-color="#8A622E"/>
</linearGradient>
<linearGradient id="paint1_linear_1930_26573" x1="128.045" y1="28.9455" x2="-2.09597" y2="62.6008" gradientUnits="userSpaceOnUse">
<stop stop-color="#FEDBA3"/>
<stop offset="1" stop-color="#8A622E"/>
</linearGradient>
<linearGradient id="paint2_linear_1930_26573" x1="128.045" y1="28.9455" x2="-2.09597" y2="62.6008" gradientUnits="userSpaceOnUse">
<stop stop-color="#FEDBA3"/>
<stop offset="1" stop-color="#8A622E"/>
</linearGradient>
<linearGradient id="paint3_linear_1930_26573" x1="128.045" y1="28.9455" x2="-2.09597" y2="62.6008" gradientUnits="userSpaceOnUse">
<stop stop-color="#FEDBA3"/>
<stop offset="1" stop-color="#8A622E"/>
</linearGradient>
<linearGradient id="paint4_linear_1930_26573" x1="128.045" y1="28.9455" x2="-2.09597" y2="62.6008" gradientUnits="userSpaceOnUse">
<stop stop-color="#FEDBA3"/>
<stop offset="1" stop-color="#8A622E"/>
</linearGradient>
<linearGradient id="paint5_linear_1930_26573" x1="128.045" y1="28.9455" x2="-2.09597" y2="62.6008" gradientUnits="userSpaceOnUse">
<stop stop-color="#FEDBA3"/>
<stop offset="1" stop-color="#8A622E"/>
</linearGradient>
<linearGradient id="paint6_linear_1930_26573" x1="128.045" y1="28.9455" x2="-2.09597" y2="62.6008" gradientUnits="userSpaceOnUse">
<stop stop-color="#FEDBA3"/>
<stop offset="1" stop-color="#8A622E"/>
</linearGradient>
<linearGradient id="paint7_linear_1930_26573" x1="128.045" y1="28.9455" x2="-2.09597" y2="62.6008" gradientUnits="userSpaceOnUse">
<stop stop-color="#FEDBA3"/>
<stop offset="1" stop-color="#8A622E"/>
</linearGradient>
</defs>
</svg>
