<svg width="6" height="7" viewBox="0 0 6 7" fill="none" xmlns="http://www.w3.org/2000/svg">
<path d="M3.49106 6.20331C3.49571 6.1763 3.49785 6.14897 3.49747 6.12163L3.49747 1.46546L3.54753 1.56698C3.59732 1.66623 3.66509 1.75651 3.74776 1.83379L5.13185 3.1395C5.30587 3.31146 5.5858 3.34036 5.79512 3.20797C6.01817 3.05389 6.0666 2.75841 5.90327 2.54798C5.89007 2.53098 5.87568 2.51482 5.86019 2.49963L3.35731 0.138499C3.16193 -0.0460236 2.84499 -0.046186 2.64939 0.13813C2.64926 0.138248 2.64912 0.138381 2.649 0.138499L0.14612 2.49963C-0.049089 2.6843 -0.0486508 2.9833 0.147106 3.16746C0.162514 3.18196 0.178907 3.19549 0.196177 3.20797C0.405496 3.34036 0.685428 3.31146 0.85944 3.1395L2.24604 1.83615C2.31956 1.76687 2.38121 1.68721 2.42875 1.60004L2.49632 1.45837L2.49632 6.09564C2.48683 6.33687 2.66546 6.54852 2.91681 6.59384C3.1897 6.63559 3.44679 6.46074 3.49106 6.20331Z" fill="#0A0A0A"/>
</svg>
