<svg width="24" height="24" viewBox="0 0 24 24" fill="none" xmlns="http://www.w3.org/2000/svg">
<path d="M14.4243 21.9317C14.2264 21.9814 14.0246 22.0255 13.8243 22.0627C13.3008 22.1608 12.9547 22.668 13.0515 23.1958C13.0993 23.4555 13.2458 23.6718 13.4445 23.813C13.6494 23.9582 13.9101 24.0238 14.1758 23.974C14.4143 23.9294 14.6547 23.877 14.8906 23.8177C15.4076 23.6881 15.7225 23.1605 15.5936 22.64C15.4649 22.119 14.9416 21.802 14.4243 21.9317Z" fill="url(#paint0_linear_1930_26582)"/>
<path d="M21.5591 8.90515C21.6267 9.11032 21.7557 9.27781 21.9187 9.39355C22.1603 9.56499 22.4765 9.62267 22.7783 9.52217C23.2842 9.35296 23.5583 8.80345 23.3909 8.29412C23.3147 8.06192 23.2301 7.82901 23.1399 7.60222C22.942 7.10385 22.3808 6.86121 21.8858 7.06056C21.3913 7.2598 21.1503 7.82526 21.3484 8.32379C21.4241 8.51441 21.4951 8.71007 21.5591 8.90515Z" fill="url(#paint1_linear_1930_26582)"/>
<path d="M17.5594 20.5442C17.3892 20.6573 17.2136 20.7669 17.0366 20.8695C16.5749 21.1378 16.4168 21.7322 16.683 22.1971C16.7553 22.3235 16.8515 22.4269 16.9624 22.5059C17.26 22.7168 17.6643 22.7484 18.0008 22.5531C18.2112 22.4309 18.4204 22.3009 18.6231 22.1659C19.0675 21.8701 19.1898 21.2671 18.896 20.8193C18.6023 20.3713 18.004 20.2482 17.5594 20.5442Z" fill="url(#paint2_linear_1930_26582)"/>
<path d="M23.9908 11.6195C23.9698 11.0831 23.5213 10.6656 22.9886 10.6866C22.4566 10.7077 22.0418 11.1597 22.0627 11.6959C22.0707 11.9009 22.0728 12.109 22.0681 12.3138C22.0606 12.6502 22.2239 12.95 22.4778 13.1302C22.629 13.2375 22.8125 13.3024 23.0115 13.307C23.544 13.3189 23.9853 12.8934 23.9971 12.3567C24.0024 12.112 24.0004 11.8641 23.9908 11.6195Z" fill="url(#paint3_linear_1930_26582)"/>
<path d="M21.4016 17.9875C20.9746 17.6648 20.3705 17.7524 20.0507 18.1818C19.9282 18.3462 19.7992 18.5086 19.6672 18.665C19.322 19.0734 19.3708 19.6869 19.7763 20.0349C19.7994 20.0546 19.8228 20.0728 19.847 20.0898C20.2501 20.3761 20.8104 20.3103 21.1364 19.925C21.2941 19.7384 21.4478 19.5445 21.5942 19.3481C21.914 18.9187 21.8275 18.3098 21.4016 17.9875Z" fill="url(#paint4_linear_1930_26582)"/>
<path d="M22.8199 14.4743C22.3114 14.3137 21.77 14.5988 21.6107 15.111C21.5497 15.3066 21.4821 15.5032 21.4092 15.6958C21.249 16.1196 21.4025 16.586 21.7543 16.8359C21.8189 16.8816 21.8899 16.9203 21.9672 16.9497C22.465 17.1411 23.0224 16.8895 23.2122 16.3878C23.2988 16.1589 23.3792 15.925 23.4519 15.6924C23.611 15.1802 23.3282 14.6349 22.8199 14.4743Z" fill="url(#paint5_linear_1930_26582)"/>
<path d="M10.2149 22.0714C9.3523 21.9154 8.52484 21.6498 7.7402 21.2792C7.73091 21.2744 7.7226 21.2688 7.71285 21.2643C7.52795 21.1767 7.34336 21.0828 7.16444 20.9846C7.16382 20.9839 7.16269 20.9834 7.16171 20.983C6.83344 20.8009 6.51306 20.5994 6.20181 20.3787C1.66327 17.1583 0.572019 10.8189 3.76931 6.24721C4.46454 5.25349 5.30589 4.42445 6.24386 3.76737C6.25541 3.75926 6.26697 3.7512 6.27842 3.74304C9.58369 1.44898 14.0717 1.29438 17.5814 3.65174L16.8276 4.74883C16.618 5.05419 16.747 5.27672 17.1138 5.24346L20.3881 4.94818C20.7555 4.91492 20.9751 4.59485 20.8763 4.23752L19.9971 1.04639C19.8986 0.688642 19.6466 0.64582 19.4369 0.951131L18.6813 2.05082C16.1057 0.309226 13.0165 -0.35487 9.95029 0.180709C9.64147 0.234548 9.33698 0.300443 9.03667 0.377147C9.03435 0.377563 9.03249 0.377823 9.03064 0.378239C9.01903 0.381097 9.00727 0.384891 8.99597 0.388061C6.35194 1.07201 4.04506 2.62538 2.39895 4.84169C2.38507 4.85827 2.37078 4.87449 2.35768 4.89252C2.30294 4.96678 2.24862 5.04276 2.19543 5.11873C2.10844 5.24325 2.0227 5.37088 1.94067 5.49851C1.9304 5.5139 1.92256 5.52954 1.91359 5.54508C0.5552 7.66541 -0.100002 10.1167 0.0123622 12.6123C0.0126202 12.6205 0.0121559 12.6288 0.0123622 12.6372C0.0232479 12.881 0.0424396 13.1282 0.068493 13.3715C0.0698859 13.3872 0.0733425 13.402 0.0759737 13.4177C0.102904 13.6624 0.136696 13.9076 0.179052 14.1528C0.609526 16.6544 1.78105 18.9055 3.53653 20.6571C3.5406 20.6612 3.54483 20.6657 3.54896 20.6699C3.55041 20.6715 3.55201 20.6724 3.5534 20.6739C4.02504 21.1425 4.53806 21.5759 5.09044 21.9678C6.53602 22.9938 8.1457 23.672 9.8744 23.9845C10.3989 24.0795 10.9 23.7278 10.9941 23.1997C11.0881 22.6712 10.7393 22.1661 10.2149 22.0714Z" fill="url(#paint6_linear_1930_26582)"/>
<path d="M11.4079 4.23591C10.9765 4.23591 10.627 4.58825 10.627 5.02223V12.8562L17.7398 16.56C17.8543 16.6197 17.9769 16.6478 18.0975 16.6478C18.38 16.6478 18.6529 16.4929 18.7916 16.2225C18.9895 15.8366 18.8397 15.3625 18.4566 15.1632L12.188 11.8987V5.02223C12.1879 4.58825 11.8389 4.23591 11.4079 4.23591Z" fill="url(#paint7_linear_1930_26582)"/>
<defs>
<linearGradient id="paint0_linear_1930_26582" x1="12" y1="0" x2="12" y2="24" gradientUnits="userSpaceOnUse">
<stop stop-color="#E8C48D"/>
<stop offset="1" stop-color="#9E7742"/>
</linearGradient>
<linearGradient id="paint1_linear_1930_26582" x1="12" y1="0" x2="12" y2="24" gradientUnits="userSpaceOnUse">
<stop stop-color="#E8C48D"/>
<stop offset="1" stop-color="#9E7742"/>
</linearGradient>
<linearGradient id="paint2_linear_1930_26582" x1="12" y1="0" x2="12" y2="24" gradientUnits="userSpaceOnUse">
<stop stop-color="#E8C48D"/>
<stop offset="1" stop-color="#9E7742"/>
</linearGradient>
<linearGradient id="paint3_linear_1930_26582" x1="12" y1="0" x2="12" y2="24" gradientUnits="userSpaceOnUse">
<stop stop-color="#E8C48D"/>
<stop offset="1" stop-color="#9E7742"/>
</linearGradient>
<linearGradient id="paint4_linear_1930_26582" x1="12" y1="0" x2="12" y2="24" gradientUnits="userSpaceOnUse">
<stop stop-color="#E8C48D"/>
<stop offset="1" stop-color="#9E7742"/>
</linearGradient>
<linearGradient id="paint5_linear_1930_26582" x1="12" y1="0" x2="12" y2="24" gradientUnits="userSpaceOnUse">
<stop stop-color="#E8C48D"/>
<stop offset="1" stop-color="#9E7742"/>
</linearGradient>
<linearGradient id="paint6_linear_1930_26582" x1="12" y1="0" x2="12" y2="24" gradientUnits="userSpaceOnUse">
<stop stop-color="#E8C48D"/>
<stop offset="1" stop-color="#9E7742"/>
</linearGradient>
<linearGradient id="paint7_linear_1930_26582" x1="12" y1="0" x2="12" y2="24" gradientUnits="userSpaceOnUse">
<stop stop-color="#E8C48D"/>
<stop offset="1" stop-color="#9E7742"/>
</linearGradient>
</defs>
</svg>
