<svg width="34" height="26" viewBox="0 0 34 26" fill="none" xmlns="http://www.w3.org/2000/svg">
<path d="M1.74351 19.0401V5.38996C1.74351 4.70779 1.74351 4.11889 1.78361 3.6336C1.81059 3.10951 1.94215 2.59592 2.17067 2.12248C2.54689 1.39068 3.1475 0.795765 3.88629 0.423114C4.36426 0.196751 4.88277 0.0664434 5.41187 0.0397205C5.90005 -4.08531e-07 6.49633 0 7.18502 0H26.8152C27.5039 0 28.0985 -4.08531e-07 28.5884 0.0397205C29.1062 0.0811684 29.6205 0.174426 30.114 0.423114C30.8532 0.796145 31.453 1.39023 31.8296 2.12248C32.0806 2.61122 32.1748 3.12068 32.2166 3.6336C32.2567 4.11716 32.2567 4.70779 32.2567 5.38996V19.0401C33.2505 19.2405 34.0002 20.1109 34.0002 21.1557C34.0002 21.7795 33.8762 22.3973 33.6351 22.9736C33.394 23.5499 33.0407 24.0735 32.5953 24.5145C32.1499 24.9556 31.6211 25.3054 31.0392 25.5439C30.4573 25.7825 29.8336 25.9052 29.2038 25.905H4.79466C3.52304 25.905 2.3035 25.4046 1.40432 24.5139C0.50515 23.6233 0 22.4153 0 21.1557C0 20.1109 0.749711 19.2387 1.74351 19.0401ZM5.07362 2.73211C4.82736 2.85633 4.62716 3.05463 4.50175 3.29856C4.46688 3.36246 4.41981 3.49199 4.39017 3.84429C4.36053 4.21042 4.35878 4.69398 4.35878 5.44004V18.997H12.3859C12.6402 18.9971 12.889 19.0707 13.1017 19.2087C13.3145 19.3467 13.482 19.5432 13.5837 19.7741C13.6516 19.9283 13.7636 20.0595 13.9058 20.1515C14.0479 20.2436 14.2141 20.2925 14.384 20.2922H19.6145C19.7844 20.2925 19.9506 20.2436 20.0928 20.1515C20.2349 20.0595 20.3469 19.9283 20.4148 19.7741C20.5165 19.5432 20.684 19.3467 20.8968 19.2087C21.1095 19.0707 21.3583 18.9971 21.6126 18.997H29.6397V5.44004C29.6397 4.69398 29.6397 4.21042 29.6083 3.84429C29.5787 3.49199 29.5299 3.36074 29.4968 3.29856C29.3713 3.05463 29.1711 2.85633 28.9249 2.73211C28.8604 2.69757 28.7296 2.65094 28.3739 2.62158C27.8375 2.59231 27.3001 2.58194 26.7629 2.5905H7.23558C6.48238 2.5905 5.9942 2.5905 5.62457 2.62158C5.2689 2.65094 5.13639 2.6993 5.07362 2.73211ZM2.65886 21.5875C2.86111 22.5718 3.73984 23.3145 4.79466 23.3145H29.2038C30.2587 23.3145 31.1391 22.5718 31.3396 21.5875H22.3361C21.698 22.3767 20.7164 22.8827 19.6145 22.8827H14.384C13.8613 22.8826 13.3454 22.7662 12.8743 22.542C12.4032 22.3178 11.989 21.9916 11.6624 21.5875H2.65886Z" fill="#2D2D2D"/>
</svg>
