<svg width="36" height="36" viewBox="0 0 36 36" fill="none" xmlns="http://www.w3.org/2000/svg">
<path fill-rule="evenodd" clip-rule="evenodd" d="M18 32.625C20.5675 32.6288 23.0903 31.9534 25.3125 30.6675V25.875C25.3125 24.5323 24.7791 23.2447 23.8297 22.2953C22.8803 21.3459 21.5927 20.8125 20.25 20.8125H15.75C14.4073 20.8125 13.1197 21.3459 12.1703 22.2953C11.2209 23.2447 10.6875 24.5323 10.6875 25.875V30.6675C12.9097 31.9534 15.4325 32.6288 18 32.625ZM28.6875 25.875V27.9832C30.6331 25.9004 31.9277 23.2945 32.4122 20.4859C32.8966 17.6772 32.5499 14.7882 31.4145 12.1739C30.2791 9.55966 28.4046 7.33413 26.0214 5.7709C23.6382 4.20767 20.8502 3.37487 18 3.37487C15.1498 3.37487 12.3618 4.20767 9.97859 5.7709C7.59538 7.33413 5.72088 9.55966 4.5855 12.1739C3.45012 14.7882 3.10336 17.6772 3.58784 20.4859C4.07231 23.2945 5.36692 25.9004 7.3125 27.9832V25.875C7.31183 24.1353 7.84892 22.438 8.85023 21.0153C9.85155 19.5927 11.2681 18.5144 12.906 17.928C12.0564 16.9507 11.5058 15.7497 11.3199 14.4682C11.134 13.1866 11.3207 11.8787 11.8577 10.7003C12.3946 9.52192 13.2592 8.52287 14.3483 7.82232C15.4374 7.12176 16.705 6.74927 18 6.74927C19.295 6.74927 20.5626 7.12176 21.6517 7.82232C22.7408 8.52287 23.6054 9.52192 24.1423 10.7003C24.6793 11.8787 24.866 13.1866 24.6801 14.4682C24.4942 15.7497 23.9436 16.9507 23.094 17.928C24.7319 18.5144 26.1485 19.5927 27.1498 21.0153C28.1511 22.438 28.6882 24.1353 28.6875 25.875ZM18 36C22.7739 36 27.3523 34.1036 30.7279 30.7279C34.1036 27.3523 36 22.7739 36 18C36 13.2261 34.1036 8.64773 30.7279 5.27208C27.3523 1.89642 22.7739 0 18 0C13.2261 0 8.64773 1.89642 5.27208 5.27208C1.89642 8.64773 0 13.2261 0 18C0 22.7739 1.89642 27.3523 5.27208 30.7279C8.64773 34.1036 13.2261 36 18 36ZM21.375 13.5C21.375 14.3951 21.0194 15.2536 20.3865 15.8865C19.7536 16.5194 18.8951 16.875 18 16.875C17.1049 16.875 16.2464 16.5194 15.6135 15.8865C14.9806 15.2536 14.625 14.3951 14.625 13.5C14.625 12.6049 14.9806 11.7464 15.6135 11.1135C16.2464 10.4806 17.1049 10.125 18 10.125C18.8951 10.125 19.7536 10.4806 20.3865 11.1135C21.0194 11.7464 21.375 12.6049 21.375 13.5Z" fill="#2D2D2D"/>
</svg>
