<svg width="164" height="54" viewBox="0 0 164 54" fill="none" xmlns="http://www.w3.org/2000/svg">
<path d="M61.8152 22.4025C59.4461 31.6281 51.8187 43.2753 44.2491 43.2753C31.8257 43.2753 39.9153 11.7931 67.3624 11.7931L63.8376 31.1091C63.202 34.5687 62.0463 40.277 64.531 40.277C66.1489 40.277 67.7091 37.9706 69.7893 32.5506L70.3093 32.6659C69.0381 36.1255 66.7268 42.8717 62.393 42.8717C59.5039 42.8717 58.4638 39.9311 59.4461 34.684L61.8152 22.4025ZM63.202 14.6761C37.4307 16.5212 36.7373 40.5076 46.3293 40.5076C53.7255 40.5076 61.6418 26.4387 62.9709 16.4059L63.202 14.6761Z" fill="url(#paint0_linear_1930_26572)"/>
<path d="M61.8152 22.4025C59.4461 31.6281 51.8187 43.2753 44.2491 43.2753C31.8257 43.2753 39.9153 11.7931 67.3624 11.7931L63.8376 31.1091C63.202 34.5687 62.0463 40.277 64.531 40.277C66.1489 40.277 67.7091 37.9706 69.7893 32.5506L70.3093 32.6659C69.0381 36.1255 66.7268 42.8717 62.393 42.8717C59.5039 42.8717 58.4638 39.9311 59.4461 34.684L61.8152 22.4025ZM63.202 14.6761C37.4307 16.5212 36.7373 40.5076 46.3293 40.5076C53.7255 40.5076 61.6418 26.4387 62.9709 16.4059L63.202 14.6761Z" fill="url(#paint1_linear_1930_26572)"/>
<path d="M89.0212 13.7536C84.1674 13.7536 78.678 25.5738 77.4645 31.3974L75.1532 42.6987C74.4598 42.4104 73.882 42.2374 73.3041 42.2374C72.7263 42.2374 72.2062 42.4104 71.5706 42.6987L75.3843 23.5557C76.0199 20.7304 76.3089 18.7123 76.3089 17.2708C76.3089 15.1374 75.6732 14.3878 74.6909 14.3878C72.3796 14.3878 70.0105 18.7123 69.6638 22.1719L69.0859 21.9989C69.5482 18.6546 72.4952 11.7931 76.6555 11.7931C78.678 11.7931 80.0648 13.35 80.0648 16.6366C80.0648 17.7897 79.8914 18.8276 79.7758 20.0961L78.5046 26.0351H78.5624C81.1049 19.7502 85.323 11.7931 90.4657 11.7931C93.875 11.7931 95.8974 15.2527 94.3372 17.9627C93.8172 18.8853 93.1238 19.4042 92.3726 19.4042C92.1415 19.4042 91.8525 19.2889 91.6214 19.1736C90.6391 18.597 90.6969 17.4438 90.928 16.5789C91.4481 14.5031 90.2346 13.7536 89.0212 13.7536Z" fill="url(#paint2_linear_1930_26572)"/>
<path d="M89.0212 13.7536C84.1674 13.7536 78.678 25.5738 77.4645 31.3974L75.1532 42.6987C74.4598 42.4104 73.882 42.2374 73.3041 42.2374C72.7263 42.2374 72.2062 42.4104 71.5706 42.6987L75.3843 23.5557C76.0199 20.7304 76.3089 18.7123 76.3089 17.2708C76.3089 15.1374 75.6732 14.3878 74.6909 14.3878C72.3796 14.3878 70.0105 18.7123 69.6638 22.1719L69.0859 21.9989C69.5482 18.6546 72.4952 11.7931 76.6555 11.7931C78.678 11.7931 80.0648 13.35 80.0648 16.6366C80.0648 17.7897 79.8914 18.8276 79.7758 20.0961L78.5046 26.0351H78.5624C81.1049 19.7502 85.323 11.7931 90.4657 11.7931C93.875 11.7931 95.8974 15.2527 94.3372 17.9627C93.8172 18.8853 93.1238 19.4042 92.3726 19.4042C92.1415 19.4042 91.8525 19.2889 91.6214 19.1736C90.6391 18.597 90.6969 17.4438 90.928 16.5789C91.4481 14.5031 90.2346 13.7536 89.0212 13.7536Z" fill="url(#paint3_linear_1930_26572)"/>
<path d="M118.719 32.9542C117.274 36.8174 111.958 42.8717 103.984 42.8717C96.8765 42.8717 92.1961 38.0859 92.1961 30.6478C92.1961 21.134 99.419 11.5625 109.3 11.5625C114.847 11.5625 118.776 14.5608 118.776 18.597C118.776 26.9 102.308 28.5721 96.3565 28.5721C96.2987 29.1487 96.2987 29.7253 96.2987 30.3019C96.2987 36.6445 99.9968 40.9689 105.833 40.9689C111.785 40.9689 116.87 36.4715 118.256 32.7236L118.719 32.9542ZM109.011 12.1391C101.788 12.1391 97.2232 21.0763 96.4143 28.1108C102.481 28.1108 115.252 26.0351 115.252 18.078C115.252 14.5608 112.767 12.1391 109.011 12.1391Z" fill="url(#paint4_linear_1930_26572)"/>
<path d="M118.719 32.9542C117.274 36.8174 111.958 42.8717 103.984 42.8717C96.8765 42.8717 92.1961 38.0859 92.1961 30.6478C92.1961 21.134 99.419 11.5625 109.3 11.5625C114.847 11.5625 118.776 14.5608 118.776 18.597C118.776 26.9 102.308 28.5721 96.3565 28.5721C96.2987 29.1487 96.2987 29.7253 96.2987 30.3019C96.2987 36.6445 99.9968 40.9689 105.833 40.9689C111.785 40.9689 116.87 36.4715 118.256 32.7236L118.719 32.9542ZM109.011 12.1391C101.788 12.1391 97.2232 21.0763 96.4143 28.1108C102.481 28.1108 115.252 26.0351 115.252 18.078C115.252 14.5608 112.767 12.1391 109.011 12.1391Z" fill="url(#paint5_linear_1930_26572)"/>
<path d="M130.256 4.93165C130.256 6.83441 128.869 8.50654 126.905 8.50654C125.402 8.50654 124.073 7.58399 124.073 5.73888C124.073 3.83611 125.518 2.2793 127.656 2.2793C128.985 2.2793 130.256 3.08654 130.256 4.93165ZM122.687 46.6196C121.762 50.8864 118.064 53.5964 114.713 53.5964C111.939 53.5964 110.552 51.6936 110.552 50.2521C110.552 49.1566 111.303 48.3494 112.228 48.3494C114.539 48.3494 113.152 53.0198 115.406 53.0198C117.024 53.0198 118.122 50.5404 118.873 47.0808L123.727 23.5557C124.42 20.0961 125.576 14.3878 123.091 14.3878C121.473 14.3878 119.913 16.6942 117.833 22.1142L117.313 21.9989C118.584 18.5393 120.895 11.7931 125.229 11.7931C128.118 11.7931 129.158 14.8491 128.118 19.9808L122.687 46.6196Z" fill="url(#paint6_linear_1930_26572)"/>
<path d="M130.256 4.93165C130.256 6.83441 128.869 8.50654 126.905 8.50654C125.402 8.50654 124.073 7.58399 124.073 5.73888C124.073 3.83611 125.518 2.2793 127.656 2.2793C128.985 2.2793 130.256 3.08654 130.256 4.93165ZM122.687 46.6196C121.762 50.8864 118.064 53.5964 114.713 53.5964C111.939 53.5964 110.552 51.6936 110.552 50.2521C110.552 49.1566 111.303 48.3494 112.228 48.3494C114.539 48.3494 113.152 53.0198 115.406 53.0198C117.024 53.0198 118.122 50.5404 118.873 47.0808L123.727 23.5557C124.42 20.0961 125.576 14.3878 123.091 14.3878C121.473 14.3878 119.913 16.6942 117.833 22.1142L117.313 21.9989C118.584 18.5393 120.895 11.7931 125.229 11.7931C128.118 11.7931 129.158 14.8491 128.118 19.9808L122.687 46.6196Z" fill="url(#paint7_linear_1930_26572)"/>
<path d="M164 22.4276C164 33.6117 154.384 43.0164 143.049 43.0164C134.261 43.0164 129.039 37.2973 129.039 29.1635C129.039 17.9159 138.909 8.44756 150.117 8.44756C158.905 8.44756 164 14.2938 164 22.4276ZM133.242 30.3708C133.242 37.2973 136.999 42.381 143.431 42.381C153.238 42.381 159.67 30.3708 159.67 21.1567C159.67 14.2938 156.103 9.08302 149.735 9.08302C139.992 9.08302 133.242 21.0932 133.242 30.3708Z" fill="url(#paint8_linear_1930_26572)"/>
<path d="M164 22.4276C164 33.6117 154.384 43.0164 143.049 43.0164C134.261 43.0164 129.039 37.2973 129.039 29.1635C129.039 17.9159 138.909 8.44756 150.117 8.44756C158.905 8.44756 164 14.2938 164 22.4276ZM133.242 30.3708C133.242 37.2973 136.999 42.381 143.431 42.381C153.238 42.381 159.67 30.3708 159.67 21.1567C159.67 14.2938 156.103 9.08302 149.735 9.08302C139.992 9.08302 133.242 21.0932 133.242 30.3708Z" fill="url(#paint9_linear_1930_26572)"/>
<path fill-rule="evenodd" clip-rule="evenodd" d="M24.9994 49.2277C31.272 36.4991 36.5306 23.7663 44.141 11.1694C46.1808 11.6572 48.3998 11.9319 50.3154 10.8647C52.6268 9.57707 52.8161 7.10632 51.6705 5.29798C50.3284 3.18061 47.988 2.53538 45.707 2.84726C42.2412 3.31652 40.1335 5.56837 38.0922 8.18218C36.3586 7.42393 34.6424 6.59272 32.9262 5.76437C27.4654 3.12052 22.0263 0.488114 15.5774 0.0460415C8.5391 -0.434659 3.81655 2.90878 1.5499 7.26656C0.467863 9.34816 -0.0522092 11.6572 0.00413196 13.8962C0.0604732 16.1452 0.697562 18.3212 1.92984 20.121C3.59408 22.5531 6.33313 24.2885 10.1759 24.5789C13.1692 24.9294 16.1423 24.2427 18.8495 22.5116C21.3834 20.8878 23.026 18.4414 21.7114 15.4599C20.677 13.1108 17.9163 12.0349 15.5442 13.0593C12.0684 14.5615 12.0568 23.9222 6.32012 22.8092C4.73101 22.0753 3.49151 20.9865 2.59438 19.6761C1.44878 18.0065 0.857918 15.9778 0.80591 13.8805C0.753903 11.7717 1.24364 9.59423 2.26211 7.63424C4.39586 3.52969 8.85837 0.386537 15.5225 0.841486C21.8125 1.27211 27.1823 3.87018 32.5737 6.4797C34.2336 7.28229 35.8964 8.08775 37.6025 8.83742C31.7184 16.9893 26.5091 29.9711 21.9729 39.4177L16.2737 25.3014L15.5254 25.5961L25.0008 49.2291L24.9994 49.2277ZM44.6061 10.4612C45.5423 9.05345 46.5781 7.48688 47.7482 6.29085C50.3081 3.67704 51.8785 6.05908 51.4306 8.26515C51.2616 9.08635 50.7011 9.73301 49.9224 10.1679C48.2842 11.0821 46.3614 10.8518 44.6076 10.4598L44.6061 10.4612Z" fill="url(#paint10_linear_1930_26572)"/>
<path fill-rule="evenodd" clip-rule="evenodd" d="M24.9994 49.2277C31.272 36.4991 36.5306 23.7663 44.141 11.1694C46.1808 11.6572 48.3998 11.9319 50.3154 10.8647C52.6268 9.57707 52.8161 7.10632 51.6705 5.29798C50.3284 3.18061 47.988 2.53538 45.707 2.84726C42.2412 3.31652 40.1335 5.56837 38.0922 8.18218C36.3586 7.42393 34.6424 6.59272 32.9262 5.76437C27.4654 3.12052 22.0263 0.488114 15.5774 0.0460415C8.5391 -0.434659 3.81655 2.90878 1.5499 7.26656C0.467863 9.34816 -0.0522092 11.6572 0.00413196 13.8962C0.0604732 16.1452 0.697562 18.3212 1.92984 20.121C3.59408 22.5531 6.33313 24.2885 10.1759 24.5789C13.1692 24.9294 16.1423 24.2427 18.8495 22.5116C21.3834 20.8878 23.026 18.4414 21.7114 15.4599C20.677 13.1108 17.9163 12.0349 15.5442 13.0593C12.0684 14.5615 12.0568 23.9222 6.32012 22.8092C4.73101 22.0753 3.49151 20.9865 2.59438 19.6761C1.44878 18.0065 0.857918 15.9778 0.80591 13.8805C0.753903 11.7717 1.24364 9.59423 2.26211 7.63424C4.39586 3.52969 8.85837 0.386537 15.5225 0.841486C21.8125 1.27211 27.1823 3.87018 32.5737 6.4797C34.2336 7.28229 35.8964 8.08775 37.6025 8.83742C31.7184 16.9893 26.5091 29.9711 21.9729 39.4177L16.2737 25.3014L15.5254 25.5961L25.0008 49.2291L24.9994 49.2277ZM44.6061 10.4612C45.5423 9.05345 46.5781 7.48688 47.7482 6.29085C50.3081 3.67704 51.8785 6.05908 51.4306 8.26515C51.2616 9.08635 50.7011 9.73301 49.9224 10.1679C48.2842 11.0821 46.3614 10.8518 44.6076 10.4598L44.6061 10.4612Z" fill="url(#paint11_linear_1930_26572)"/>
<defs>
<linearGradient id="paint0_linear_1930_26572" x1="44.1363" y1="34.4831" x2="-2.66897" y2="37.9226" gradientUnits="userSpaceOnUse">
<stop stop-color="#FEDBA3"/>
<stop offset="1" stop-color="#8A622E"/>
</linearGradient>
<linearGradient id="paint1_linear_1930_26572" x1="138.255" y1="37.5422" x2="-2.84422" y2="67.3759" gradientUnits="userSpaceOnUse">
<stop stop-color="#FEDBA3"/>
<stop offset="1" stop-color="#8A622E"/>
</linearGradient>
<linearGradient id="paint2_linear_1930_26572" x1="44.1363" y1="34.4831" x2="-2.66897" y2="37.9226" gradientUnits="userSpaceOnUse">
<stop stop-color="#FEDBA3"/>
<stop offset="1" stop-color="#8A622E"/>
</linearGradient>
<linearGradient id="paint3_linear_1930_26572" x1="138.255" y1="37.5422" x2="-2.84422" y2="67.3759" gradientUnits="userSpaceOnUse">
<stop stop-color="#FEDBA3"/>
<stop offset="1" stop-color="#8A622E"/>
</linearGradient>
<linearGradient id="paint4_linear_1930_26572" x1="44.1363" y1="34.4831" x2="-2.66897" y2="37.9226" gradientUnits="userSpaceOnUse">
<stop stop-color="#FEDBA3"/>
<stop offset="1" stop-color="#8A622E"/>
</linearGradient>
<linearGradient id="paint5_linear_1930_26572" x1="138.255" y1="37.5422" x2="-2.84422" y2="67.3759" gradientUnits="userSpaceOnUse">
<stop stop-color="#FEDBA3"/>
<stop offset="1" stop-color="#8A622E"/>
</linearGradient>
<linearGradient id="paint6_linear_1930_26572" x1="44.1363" y1="34.4831" x2="-2.66897" y2="37.9226" gradientUnits="userSpaceOnUse">
<stop stop-color="#FEDBA3"/>
<stop offset="1" stop-color="#8A622E"/>
</linearGradient>
<linearGradient id="paint7_linear_1930_26572" x1="138.255" y1="37.5422" x2="-2.84422" y2="67.3759" gradientUnits="userSpaceOnUse">
<stop stop-color="#FEDBA3"/>
<stop offset="1" stop-color="#8A622E"/>
</linearGradient>
<linearGradient id="paint8_linear_1930_26572" x1="44.1363" y1="34.4831" x2="-2.66897" y2="37.9226" gradientUnits="userSpaceOnUse">
<stop stop-color="#FEDBA3"/>
<stop offset="1" stop-color="#8A622E"/>
</linearGradient>
<linearGradient id="paint9_linear_1930_26572" x1="138.255" y1="37.5422" x2="-2.84422" y2="67.3759" gradientUnits="userSpaceOnUse">
<stop stop-color="#FEDBA3"/>
<stop offset="1" stop-color="#8A622E"/>
</linearGradient>
<linearGradient id="paint10_linear_1930_26572" x1="44.1363" y1="34.4831" x2="-2.66897" y2="37.9226" gradientUnits="userSpaceOnUse">
<stop stop-color="#FEDBA3"/>
<stop offset="1" stop-color="#8A622E"/>
</linearGradient>
<linearGradient id="paint11_linear_1930_26572" x1="138.255" y1="37.5422" x2="-2.84422" y2="67.3759" gradientUnits="userSpaceOnUse">
<stop stop-color="#FEDBA3"/>
<stop offset="1" stop-color="#8A622E"/>
</linearGradient>
</defs>
</svg>
