<svg width="24" height="24" viewBox="0 0 24 24" fill="none" xmlns="http://www.w3.org/2000/svg">
<path d="M5.86476 5.59442H6.20812C6.72993 5.59442 7.15292 5.16367 7.15292 4.63261V0.985597C7.15292 0.454535 6.72993 0.0238301 6.20812 0.0238301H5.86476C5.34299 0.0238301 4.92 0.454535 4.92 0.985597V4.63261C4.92 5.16367 5.34299 5.59442 5.86476 5.59442Z" fill="url(#paint0_linear_1930_26579)"/>
<path d="M17.9832 5.57059H18.3265C18.8483 5.57059 19.2713 5.13989 19.2713 4.60878V0.961717C19.2713 0.430705 18.8483 0 18.3265 0H17.9832C17.4613 0 17.0383 0.430705 17.0383 0.961717V4.60872C17.0384 5.13989 17.4614 5.57059 17.9832 5.57059Z" fill="url(#paint1_linear_1930_26579)"/>
<path d="M22.4641 1.9784H20.0393V4.86063C20.0393 5.82209 19.271 6.3524 18.3266 6.3524H17.9833C17.0388 6.3524 16.2705 5.57019 16.2705 4.60872V1.9784H7.92095V4.63256C7.92095 5.59402 7.15262 6.37623 6.20817 6.37623H5.86481C4.9204 6.37623 4.15207 5.59402 4.15207 4.63256V1.9784H1.53596C0.689043 1.9784 0 2.67985 0 3.54206V22.4363C0 23.2986 0.689043 24 1.53596 24H22.4641C23.311 24 24 23.2986 24 22.4363V3.54206C24.0001 2.6799 23.311 1.9784 22.4641 1.9784ZM22.4641 22.4363H1.53601L1.53596 8.16787H22.4644L22.4652 22.4363C22.4651 22.4363 22.4648 22.4363 22.4641 22.4363Z" fill="url(#paint2_linear_1930_26579)"/>
<path d="M12.7929 12.9539H15.5508C15.6602 12.9539 15.7488 12.8637 15.7488 12.7524V10.3213C15.7488 10.21 15.6602 10.1198 15.5508 10.1198H12.7929C12.6836 10.1198 12.595 10.21 12.595 10.3213V12.7524C12.595 12.8637 12.6836 12.9539 12.7929 12.9539Z" fill="url(#paint3_linear_1930_26579)"/>
<path d="M17.2938 12.9539H20.0517C20.161 12.9539 20.2496 12.8637 20.2496 12.7524V10.3213C20.2496 10.21 20.161 10.1198 20.0517 10.1198H17.2938C17.1844 10.1198 17.0958 10.21 17.0958 10.3213V12.7524C17.0958 12.8637 17.1844 12.9539 17.2938 12.9539Z" fill="url(#paint4_linear_1930_26579)"/>
<path d="M3.79144 16.934H6.5493C6.65862 16.934 6.74725 16.8438 6.74725 16.7325V14.3013C6.74725 14.19 6.65862 14.0998 6.5493 14.0998H3.79144C3.68212 14.0998 3.59348 14.19 3.59348 14.3013V16.7325C3.59348 16.8438 3.68212 16.934 3.79144 16.934Z" fill="url(#paint5_linear_1930_26579)"/>
<path d="M8.29222 16.934H11.0501C11.1594 16.934 11.248 16.8438 11.248 16.7325V14.3013C11.248 14.19 11.1594 14.0998 11.0501 14.0998H8.29222C8.1829 14.0998 8.09426 14.19 8.09426 14.3013V16.7325C8.09426 16.8438 8.1829 16.934 8.29222 16.934Z" fill="url(#paint6_linear_1930_26579)"/>
<path d="M12.793 16.934H15.5508C15.6602 16.934 15.7488 16.8438 15.7488 16.7325V14.3013C15.7488 14.19 15.6602 14.0998 15.5508 14.0998H12.793C12.6837 14.0998 12.595 14.19 12.595 14.3013V16.7325C12.595 16.8438 12.6837 16.934 12.793 16.934Z" fill="url(#paint7_linear_1930_26579)"/>
<path d="M17.2938 16.934H20.0517C20.161 16.934 20.2496 16.8438 20.2496 16.7325V14.3013C20.2496 14.19 20.161 14.0998 20.0517 14.0998H17.2938C17.1844 14.0998 17.0958 14.19 17.0958 14.3013V16.7325C17.0958 16.8438 17.1844 16.934 17.2938 16.934Z" fill="url(#paint8_linear_1930_26579)"/>
<path d="M6.5493 18.0799H3.79149C3.68217 18.0799 3.59353 18.1701 3.59353 18.2814V20.7126C3.59353 20.8239 3.68217 20.9141 3.79149 20.9141H6.54935C6.65867 20.9141 6.7473 20.8239 6.7473 20.7126V18.2814C6.74725 18.1701 6.65862 18.0799 6.5493 18.0799Z" fill="url(#paint9_linear_1930_26579)"/>
<path d="M11.0501 18.0799H8.29227C8.18295 18.0799 8.09431 18.1701 8.09431 18.2814V20.7126C8.09431 20.8239 8.18295 20.9141 8.29227 20.9141H11.0501C11.1594 20.9141 11.2481 20.8239 11.2481 20.7126V18.2814C11.2481 18.1701 11.1594 18.0799 11.0501 18.0799Z" fill="url(#paint10_linear_1930_26579)"/>
<path d="M15.5509 18.0799H12.793C12.6837 18.0799 12.5951 18.1701 12.5951 18.2814V20.7126C12.5951 20.8239 12.6837 20.9141 12.793 20.9141H15.5509C15.6603 20.9141 15.7489 20.8239 15.7489 20.7126V18.2814C15.7489 18.1701 15.6603 18.0799 15.5509 18.0799Z" fill="url(#paint11_linear_1930_26579)"/>
<path d="M20.0517 18.0799H17.2938C17.1844 18.0799 17.0958 18.1701 17.0958 18.2814V20.7126C17.0958 20.8239 17.1844 20.9141 17.2938 20.9141H20.0517C20.161 20.9141 20.2496 20.8239 20.2496 20.7126V18.2814C20.2496 18.1701 20.161 18.0799 20.0517 18.0799Z" fill="url(#paint12_linear_1930_26579)"/>
<defs>
<linearGradient id="paint0_linear_1930_26579" x1="12" y1="0" x2="12" y2="24" gradientUnits="userSpaceOnUse">
<stop stop-color="#E8C48D"/>
<stop offset="1" stop-color="#9E7742"/>
</linearGradient>
<linearGradient id="paint1_linear_1930_26579" x1="12" y1="0" x2="12" y2="24" gradientUnits="userSpaceOnUse">
<stop stop-color="#E8C48D"/>
<stop offset="1" stop-color="#9E7742"/>
</linearGradient>
<linearGradient id="paint2_linear_1930_26579" x1="12" y1="0" x2="12" y2="24" gradientUnits="userSpaceOnUse">
<stop stop-color="#E8C48D"/>
<stop offset="1" stop-color="#9E7742"/>
</linearGradient>
<linearGradient id="paint3_linear_1930_26579" x1="12" y1="0" x2="12" y2="24" gradientUnits="userSpaceOnUse">
<stop stop-color="#E8C48D"/>
<stop offset="1" stop-color="#9E7742"/>
</linearGradient>
<linearGradient id="paint4_linear_1930_26579" x1="12" y1="0" x2="12" y2="24" gradientUnits="userSpaceOnUse">
<stop stop-color="#E8C48D"/>
<stop offset="1" stop-color="#9E7742"/>
</linearGradient>
<linearGradient id="paint5_linear_1930_26579" x1="12" y1="0" x2="12" y2="24" gradientUnits="userSpaceOnUse">
<stop stop-color="#E8C48D"/>
<stop offset="1" stop-color="#9E7742"/>
</linearGradient>
<linearGradient id="paint6_linear_1930_26579" x1="12" y1="0" x2="12" y2="24" gradientUnits="userSpaceOnUse">
<stop stop-color="#E8C48D"/>
<stop offset="1" stop-color="#9E7742"/>
</linearGradient>
<linearGradient id="paint7_linear_1930_26579" x1="12" y1="0" x2="12" y2="24" gradientUnits="userSpaceOnUse">
<stop stop-color="#E8C48D"/>
<stop offset="1" stop-color="#9E7742"/>
</linearGradient>
<linearGradient id="paint8_linear_1930_26579" x1="12" y1="0" x2="12" y2="24" gradientUnits="userSpaceOnUse">
<stop stop-color="#E8C48D"/>
<stop offset="1" stop-color="#9E7742"/>
</linearGradient>
<linearGradient id="paint9_linear_1930_26579" x1="12" y1="0" x2="12" y2="24" gradientUnits="userSpaceOnUse">
<stop stop-color="#E8C48D"/>
<stop offset="1" stop-color="#9E7742"/>
</linearGradient>
<linearGradient id="paint10_linear_1930_26579" x1="12" y1="0" x2="12" y2="24" gradientUnits="userSpaceOnUse">
<stop stop-color="#E8C48D"/>
<stop offset="1" stop-color="#9E7742"/>
</linearGradient>
<linearGradient id="paint11_linear_1930_26579" x1="12" y1="0" x2="12" y2="24" gradientUnits="userSpaceOnUse">
<stop stop-color="#E8C48D"/>
<stop offset="1" stop-color="#9E7742"/>
</linearGradient>
<linearGradient id="paint12_linear_1930_26579" x1="12" y1="0" x2="12" y2="24" gradientUnits="userSpaceOnUse">
<stop stop-color="#E8C48D"/>
<stop offset="1" stop-color="#9E7742"/>
</linearGradient>
</defs>
</svg>
